<svg xmlns="http://www.w3.org/2000/svg" width="1440" height="112" fill="none"><path fill="#fff" d="M1440 0H0v77.082s59.172 8.458 97.374 7.458c79.564-2.084 193.327-48.474 193.327-48.474s106.621 45.87 181.954 48.474c86.66 2.996 212.518-48.474 212.518-48.474s55.336 35.509 90.266 41.016c44.349 6.993 91.688-30.362 91.688-30.362s21.285 26.24 41.224 30.362c26.942 5.57 51.886-30.362 51.886-30.362s77.323 66.527 142.153 64.454c60.61-1.938 129.36-64.454 129.36-64.454s58.44 32.095 102.35 37.82c40.92 5.336 105.9-7.458 105.9-7.458V0Z"/></svg>