<svg xmlns="http://www.w3.org/2000/svg" width="768" height="54" fill="none"><path fill="#fff" d="M768 0H0v37.424s31.559 4.107 51.933 3.621C94.367 40.033 155.04 17.51 155.04 17.51s56.865 22.27 97.043 23.535C298.301 42.5 365.425 17.51 365.425 17.51s29.513 17.24 48.143 19.914c23.652 3.395 48.9-14.741 48.9-14.741s11.352 12.74 21.986 14.741c14.369 2.704 27.672-14.741 27.672-14.741s41.242 32.3 75.815 31.294c32.324-.942 68.991-31.294 68.991-31.294s31.17 15.583 54.586 18.362c21.827 2.59 56.482-3.62 56.482-3.62V0Z"/></svg>