<svg xmlns="http://www.w3.org/2000/svg" width="358" height="27" fill="none"><path fill="#fff" d="M357.024.6H0v17.737s14.67 1.946 24.142 1.716c19.727-.48 47.932-11.154 47.932-11.154s26.435 10.554 45.113 11.154c21.486.69 52.69-11.154 52.69-11.154s13.72 8.17 22.38 9.438c10.996 1.609 22.733-6.986 22.733-6.986s5.277 6.037 10.221 6.986c6.68 1.281 12.864-6.986 12.864-6.986s19.172 15.307 35.244 14.83c15.027-.446 32.073-14.83 32.073-14.83s14.49 7.385 25.375 8.702c10.147 1.228 26.257-1.716 26.257-1.716V.6Z"/></svg>