<svg width="97" height="79" viewBox="0 0 97 79" fill="none" xmlns="http://www.w3.org/2000/svg">
<path d="M76.8665 47.8444C76.8665 39.5286 97.8147 34.8102 94.5787 28.6562C92.1349 24.0089 70.8796 15.8984 65.0087 15.8641C59.7053 15.833 53.5779 7.5 47.3462 7.5C25.0807 7.5 2.11416 29.8368 2.11416 50.105C2.11416 56.4743 1.67435 62.2735 4.03677 65.1289C9.19193 71.3598 22.6711 62.9727 37.9396 62.9727C46.8026 62.9727 55.819 71.5165 65.0087 66.4885C78.9054 58.8852 76.8665 60.0446 76.8665 47.8444Z" fill="#F2B441" fill-opacity="0.6"/>
<path d="M89.0496 28.9619L49.1389 9.74768C48.3635 9.37434 47.4716 9.37434 46.6962 9.74768L6.78713 28.9619C5.80314 29.4349 5.19249 30.407 5.19249 31.4992V49.5368C3.40895 50.0011 2.08179 51.6111 2.08179 53.5378C2.08179 54.6444 2.5239 55.6452 3.23266 56.3895L2.14848 62.1073C1.99143 62.93 2.20674 63.7712 2.73894 64.4149C3.27446 65.0618 4.06749 65.4318 4.91546 65.4318H7.54475C8.39189 65.4318 9.18506 65.0619 9.72044 64.4149C10.2525 63.7713 10.468 62.9301 10.3109 62.1091L9.22699 56.3909C9.93631 55.6464 10.3786 54.645 10.3786 53.5379C10.3786 51.6113 9.05195 50.0012 7.26869 49.5369V34.2685L23.9769 42.3134V58.376C23.9769 61.0011 25.2252 63.4623 27.3216 64.9658C33.4772 69.3206 40.6928 71.4997 47.9109 71.4997C55.1299 71.4997 62.3497 69.3206 68.5154 64.9641C70.6084 63.4775 71.8568 61.0079 71.8568 58.3575V42.3144L89.0499 34.0365C90.0311 33.5625 90.6426 32.5904 90.6426 31.4992C90.6426 30.4079 90.0311 29.4357 89.0496 28.9619ZM8.12081 63.0904C8.03889 63.19 7.85471 63.3573 7.54475 63.3573H4.91546C4.60467 63.3573 4.42048 63.19 4.33774 63.0904C4.25831 62.994 4.1317 62.788 4.18746 62.4941L5.13063 57.5181C5.48321 57.6158 5.84729 57.6848 6.23059 57.6848C6.6132 57.6848 6.97671 57.6159 7.32874 57.5185L8.27191 62.4958C8.32768 62.788 8.20107 62.9942 8.12081 63.0904ZM8.30236 53.5378C8.30236 54.6797 7.3733 55.6106 6.23045 55.6106C5.0876 55.6106 4.15771 54.6798 4.15771 53.5378C4.15771 52.3941 5.0876 51.4634 6.23045 51.4634C7.3733 51.4634 8.30236 52.3941 8.30236 53.5378ZM69.7823 58.3572C69.7823 60.3369 68.8582 62.1732 67.3143 63.2695C55.7059 71.4776 40.1134 71.4758 28.5261 63.2747C26.9771 62.1649 26.053 60.3337 26.053 58.3759V43.3126L46.6964 53.2522H46.6989C47.0858 53.4381 47.5013 53.5309 47.9169 53.5309C48.3332 53.5309 48.7504 53.4381 49.139 53.2522L69.7824 43.3131L69.7823 58.3572ZM88.1476 32.1664L48.2411 51.3807C48.0359 51.4786 47.8027 51.4786 47.5958 51.3807L8.45775 32.5371H43.5767C44.1699 33.8656 45.8546 34.8083 47.9176 34.8083C50.4894 34.8083 52.5029 33.3547 52.5029 31.499C52.5029 29.6434 50.4894 28.1898 47.9176 28.1898C45.8546 28.1898 44.1701 29.1325 43.5767 30.4609H8.45775L47.5967 11.6176C47.7986 11.5188 48.0334 11.5179 48.2386 11.6176L88.1477 30.8318C88.526 31.0133 88.5666 31.3589 88.5666 31.499C88.5666 31.6394 88.526 31.9847 88.1476 32.1664ZM45.4082 31.4992C45.4082 30.9966 46.3855 30.266 47.9176 30.266C49.4505 30.266 50.4287 30.9966 50.4287 31.4992C50.4287 32.0018 49.4506 32.7324 47.9176 32.7324C46.3855 32.7323 45.4082 32.0016 45.4082 31.4992Z" fill="#1E1E1E"/>
</svg>
