<svg width="89" height="79" viewBox="0 0 89 79" fill="none" xmlns="http://www.w3.org/2000/svg">
<path d="M84.4812 28.0211C84.4812 38.2125 88.0926 59.3528 84.4812 66.8948C81.754 72.5903 71.2939 69.6701 64.742 69.7122C58.8235 69.7502 57.0415 73 50.0869 73C25.2389 73 2.94995 52.8608 2.94995 28.0211C2.94995 20.2151 2.45913 13.1079 5.09556 9.60847C10.8487 1.97219 25.8912 12.251 42.9307 12.251C52.8217 12.251 62.8839 1.78009 73.1396 7.94219C88.6481 17.2605 84.4812 13.069 84.4812 28.0211Z" fill="#F2B441" fill-opacity="0.6"/>
<path d="M78.6019 17.1983C77.4113 16.6913 76.2617 16.2739 75.1096 15.9017V15.0917C75.1096 14.0373 74.4164 13.0866 73.4245 12.7796C63.2039 9.61898 51.5976 11.0838 41.4878 16.7775C31.3771 11.083 19.7658 9.61827 9.55184 12.7796C8.55773 13.0872 7.8638 14.0379 7.8638 15.0917V15.9006C6.70813 16.2741 5.55741 16.6922 4.36341 17.2006C3.48261 17.5817 2.91382 18.4573 2.91382 19.4324V66.6767C2.91382 67.4816 3.30973 68.2293 3.97196 68.6737C4.64081 69.1211 5.4893 69.2079 6.24494 68.8975C15.4422 65.0756 31.083 65.4758 36.7085 71.7127C37.1735 72.2279 37.8299 72.5221 38.5091 72.5221H44.462C45.139 72.5221 45.7954 72.2279 46.2634 71.7127C51.8867 65.4758 67.5261 65.0725 76.7314 68.9004C77.4864 69.2095 78.3385 69.1211 79.011 68.6693C79.6747 68.2249 80.0706 67.4788 80.0706 66.6767V19.4324C80.0706 18.461 79.4966 17.5854 78.6019 17.1983ZM72.8903 14.5074C73.1317 14.5825 73.3024 14.8222 73.3024 15.0916V60.3616C73.3024 60.5559 73.2126 60.7339 73.0582 60.8503C72.9743 60.915 72.7976 61.0107 72.5681 60.9474C62.8903 58.2116 51.9765 59.5832 42.3922 64.6913V18.333C52.0648 12.8908 63.1464 11.492 72.8903 14.5074ZM9.67251 15.0917C9.67251 14.8231 9.8425 14.5825 10.086 14.5075C19.8219 11.4964 30.9094 12.8908 40.5835 18.3331V64.6915C34.242 61.311 27.3185 59.5671 20.5526 59.5671C17.0963 59.5671 13.6814 60.0232 10.4068 60.9474C10.1757 61.0107 10.0007 60.9166 9.91605 60.8503C9.76149 60.734 9.67252 60.556 9.67252 60.3616L9.67251 15.0917ZM78.2635 66.6767C78.2635 66.9534 78.1001 67.1035 78.0029 67.1682C77.9205 67.2256 77.6954 67.3404 77.4202 67.2285C67.4849 63.0975 51.1228 63.6273 44.9227 70.4985C44.7991 70.6353 44.6299 70.7148 44.462 70.7148H38.5091C38.3406 70.7148 38.1729 70.6353 38.0499 70.4999C31.8505 63.6286 15.4884 63.0944 5.5562 67.2255C5.35969 67.3049 5.15004 67.2873 4.98078 67.1725C4.88433 67.1078 4.72255 66.9577 4.72255 66.6766V19.4324C4.72255 19.1792 4.86312 18.9548 5.0765 18.8629C6.02493 18.4589 6.94526 18.1202 7.86379 17.8076V60.3619C7.86379 61.1272 8.21401 61.8306 8.82475 62.2927C9.42368 62.746 10.178 62.8888 10.8983 62.6872C20.5709 59.9557 31.5562 61.5319 41.0352 67.011C41.175 67.0919 41.3318 67.1317 41.4878 67.1317C41.6438 67.1317 41.8005 67.0919 41.9403 67.011C51.4171 61.5305 62.3973 59.9573 72.0764 62.6872C72.7932 62.8888 73.5511 62.7475 74.15 62.2927C74.7608 61.8306 75.1096 61.1272 75.1096 60.3619V17.8087C76.0254 18.1206 76.9435 18.4585 77.8895 18.8608C78.1132 18.9573 78.2633 19.1868 78.2633 19.4326L78.2635 66.6767Z" fill="#1E1E1E"/>
</svg>
