<svg width="79" height="64" viewBox="0 0 79 64" fill="none" xmlns="http://www.w3.org/2000/svg">
<path d="M31.6511 60.2988C36.0457 60.2988 40.8408 49.2725 40.8408 49.2725C40.8408 49.2725 46.0921 59.9745 49.7024 60.9474C51.3434 60.6231 60.9223 59.3967 62.5024 53.8127C63.8244 49.1407 58.8921 38.8947 60.5331 37.9218C61.5177 36.3003 64.7998 26.9122 64.7998 24.9496C64.7998 10.3303 54.1878 1.59961 39.3927 1.59961C24.5977 1.59961 13.5998 15.7914 13.5998 30.4106C13.5998 37.1371 18.8111 32.5685 20.8203 40.8405C22.8295 49.1125 23.6634 60.2988 31.6511 60.2988Z" fill="#F2B441" fill-opacity="0.6"/>
<path d="M57.9548 37.6322C58.0178 36.7678 58.4671 35.993 59.1873 35.5048L60.9906 34.2833C62.7061 33.1228 63.3185 30.8448 62.4151 28.9851L61.4658 27.0285C61.0872 26.2481 61.0872 25.3524 61.4658 24.572L62.4151 22.616C63.3185 20.7557 62.7061 18.4778 60.9906 17.3172L59.1873 16.0963C58.4671 15.6086 58.0178 14.8333 57.9548 13.9689L57.7953 11.8019C57.6447 9.74109 55.9707 8.0734 53.9035 7.92226L51.7285 7.76304C50.8611 7.70031 50.0837 7.25303 49.5938 6.53529L48.3681 4.73819C47.2053 3.02905 44.919 2.41825 43.0506 3.31794L41.0879 4.26407C40.3059 4.64137 39.4066 4.64137 38.6235 4.26407L36.6608 3.31797C34.7924 2.41717 32.5083 3.02907 31.3438 4.73822L30.1187 6.53532C29.6294 7.25305 28.8514 7.70033 27.984 7.76307L25.8089 7.92209C23.7416 8.07323 22.0682 9.74101 21.9166 11.8011L21.7576 13.9688C21.6942 14.8332 21.2453 15.6086 20.5257 16.0956L18.7219 17.3171C17.0069 18.4777 16.394 20.7556 17.2968 22.6159L18.2461 24.5719C18.6247 25.3523 18.6247 26.2481 18.2461 27.0284L17.2968 28.985C16.3941 30.8448 17.0069 33.1227 18.7214 34.2832L20.5252 35.5047C21.2453 35.9929 21.6942 36.7677 21.7577 37.6321L21.9166 39.7998C21.9843 40.7206 22.3679 41.553 22.9429 42.2166L17.6041 53.1685C17.2788 53.8325 17.367 54.5983 17.8344 55.1682C18.3046 55.7426 19.0427 55.9845 19.7713 55.7975L26.6145 53.9791L29.4058 60.4731C29.7002 61.1516 30.3445 61.5838 31.0871 61.5983C31.1006 61.5996 31.1141 61.5996 31.1275 61.5996C31.8539 61.5996 32.4971 61.1976 32.8116 60.5471L39.3804 47.1063C39.6958 47.052 40.015 47.052 40.3302 47.1061L46.8952 60.5505C47.2187 61.2021 47.8625 61.5996 48.586 61.5996C48.6063 61.5996 48.6264 61.5985 48.6467 61.5985C49.3837 61.5761 50.0185 61.1417 50.3005 60.471L53.0913 53.9781L59.9502 55.7986C60.6692 55.9833 61.4018 55.7449 61.8703 55.1784C62.341 54.6107 62.4343 53.8426 62.1129 53.1686L56.7649 42.2223C57.3428 41.5578 57.7279 40.7232 57.7954 39.7999L57.9548 37.6322ZM31.5691 59.947C31.4455 60.2034 31.2095 60.2269 31.1152 60.2236C31.0202 60.2214 30.7866 60.1889 30.6742 59.9291L27.6487 52.8898C27.5128 52.5764 27.1689 52.4083 26.8358 52.4957L19.4202 54.4663C19.1292 54.5413 18.9511 54.3577 18.9034 54.2983C18.8438 54.2255 18.7186 54.0285 18.8449 53.771L24.0383 43.1188C24.5709 43.4248 25.1666 43.6318 25.8089 43.6784L27.984 43.8374C28.8514 43.9001 29.6294 44.348 30.1181 45.0645L31.3438 46.8627C32.5083 48.5713 34.7929 49.1826 36.6607 48.2824L37.4574 47.8983L31.5691 59.947ZM60.8051 54.3028C60.7445 54.3756 60.5793 54.5391 60.3007 54.4674L52.8687 52.4957C52.5317 52.4061 52.1912 52.5764 52.0564 52.8898L49.0286 59.9336C48.9229 60.1866 48.696 60.2202 48.6039 60.2236C48.5297 60.2169 48.2668 60.2101 48.1343 59.9448L42.2517 47.897L43.0516 48.2824C43.6325 48.5623 44.2537 48.6967 44.8683 48.6967C46.2322 48.6967 47.5657 48.0405 48.3679 46.8627L49.5936 45.0656C50.0835 44.3479 50.8609 43.9 51.7283 43.8373L53.9034 43.6783C54.5439 43.6318 55.1379 43.4259 55.6693 43.1214L60.869 53.7653C60.995 54.0285 60.867 54.2289 60.8051 54.3028ZM56.5775 37.5314L56.4179 39.6991C56.3168 41.0841 55.1922 42.2049 53.8024 42.3056L51.6273 42.4646C50.3376 42.5587 49.1804 43.2249 48.4523 44.2919L47.2266 46.0901C46.4436 47.2389 44.9078 47.6487 43.6528 47.0441L41.6901 46.098C41.5029 46.0078 41.3061 45.9562 41.1115 45.8949C41.0619 45.8706 41.0107 45.8522 40.9553 45.8402C40.2375 45.6445 39.4912 45.6418 38.7728 45.8347C38.7126 45.8472 38.6574 45.8666 38.6025 45.8945C38.4074 45.9558 38.21 46.0076 38.0223 46.0981L36.0596 47.0442C34.8057 47.6477 33.2694 47.239 32.4858 46.0902L31.2601 44.2909C30.532 43.225 29.3748 42.5588 28.0851 42.4647L25.9094 42.3057C24.5202 42.2049 23.3956 41.0842 23.2939 39.6992L23.135 37.5315C23.04 36.2461 22.3721 35.0929 21.3015 34.3673L19.4971 33.1458C18.345 32.3654 17.9327 30.8343 18.5393 29.5842L19.4887 27.6276C20.0527 26.4665 20.0527 25.1341 19.4887 23.9731L18.5393 22.017C17.9332 20.7669 18.345 19.2352 19.4971 18.4548L21.3015 17.2339C22.3716 16.5089 23.0401 15.3556 23.135 14.0697L23.2939 11.902C23.3956 10.517 24.5203 9.39627 25.9099 9.29493L28.0844 9.1359C29.3747 9.0418 30.5319 8.37625 31.26 7.30863L32.4851 5.51099C33.0249 4.71997 33.9221 4.27884 34.8383 4.27884C35.2518 4.27884 35.6697 4.36898 36.0596 4.55654L38.0223 5.50264C39.1874 6.06474 40.5238 6.06474 41.6899 5.50264L43.6515 4.55654C44.9054 3.95418 46.4434 4.36174 47.2265 5.51163L48.4522 7.30927C49.1802 8.37634 50.3374 9.04199 51.6271 9.13599L53.8023 9.29502C55.192 9.39636 56.3167 10.5172 56.4177 11.9021L56.5773 14.0698C56.6717 15.3557 57.3413 16.509 58.4119 17.234L60.2152 18.4549C61.3679 19.2353 61.7791 20.767 61.1724 22.0171L60.2231 23.9731C59.6591 25.1342 59.6591 26.4666 60.2231 27.6277L61.1724 29.5843C61.7792 30.8344 61.3679 32.3655 60.2152 33.1459L58.4119 34.3674C57.3403 35.0917 56.6718 36.2449 56.5775 37.5314ZM39.8559 42.917C30.3854 42.917 22.6805 35.2383 22.6805 25.8001C22.6805 16.362 30.3854 8.6834 39.8559 8.6834C49.3264 8.6834 57.0314 16.362 57.0314 25.8002C57.0314 35.2385 49.3264 42.917 39.8559 42.917ZM39.8559 10.0594C31.1466 10.0594 24.0613 17.1206 24.0613 25.8001C24.0613 34.4803 31.1467 41.542 39.8559 41.542C48.5658 41.542 55.6517 34.4803 55.6517 25.8001C55.6517 17.1206 48.5658 10.0594 39.8559 10.0594ZM35.7153 34.2352C35.3282 34.2352 34.9457 34.1142 34.6176 33.8763C34.0767 33.485 33.7913 32.8552 33.8536 32.1924L34.1969 28.5238L31.755 25.7571C31.314 25.2567 31.1735 24.5798 31.3802 23.9466C31.5864 23.3129 32.0992 22.8477 32.7509 22.7016L36.3584 21.8932L38.2442 18.724C38.5851 18.1513 39.1874 17.8098 39.8553 17.8093C40.5238 17.8093 41.1271 18.1514 41.4675 18.724L43.3538 21.8932L46.9613 22.7016C47.613 22.8477 48.1253 23.3129 48.332 23.9461C48.5387 24.5798 48.3982 25.2561 47.9579 25.7566L45.5154 28.5238L45.8592 32.1924C45.921 32.8558 45.6345 33.4856 45.0941 33.8769C44.5526 34.2677 43.865 34.3416 43.2505 34.0807L39.8558 32.6212L36.4612 34.0807C36.2198 34.1836 35.9664 34.2352 35.7153 34.2352ZM39.8559 19.1852C39.7716 19.1852 39.561 19.2087 39.4318 19.426L37.3943 22.8505C37.2971 23.0134 37.1376 23.1293 36.9522 23.1708L33.0543 24.0441C32.8066 24.0995 32.7189 24.2916 32.6931 24.3716C32.6667 24.4517 32.6245 24.6582 32.7919 24.8486L35.4305 27.8375C35.5557 27.9797 35.617 28.1672 35.599 28.356L35.2277 32.3201C35.2041 32.5721 35.3608 32.7142 35.4287 32.7635C35.4973 32.8139 35.6821 32.9175 35.9141 32.8173L39.5823 31.2408C39.7576 31.1658 39.9542 31.1658 40.1295 31.2408L43.7978 32.8173C44.0326 32.9163 44.2134 32.8133 44.2831 32.7635C44.3517 32.7143 44.5078 32.5715 44.4842 32.3201L44.1134 28.356C44.0966 28.1673 44.1572 27.9798 44.283 27.8382L46.9209 24.8486C47.0872 24.6589 47.0445 24.4517 47.0187 24.3716C46.9928 24.2916 46.9052 24.0995 46.658 24.0441L42.7606 23.1708C42.5753 23.1293 42.4157 23.0135 42.3191 22.8505L40.2805 19.426C40.1509 19.2087 39.9402 19.1852 39.8559 19.1852Z" fill="black"/>
</svg>
