<svg width="338" height="82" viewBox="0 0 338 82" fill="none" xmlns="http://www.w3.org/2000/svg">
<path fill-rule="evenodd" clip-rule="evenodd" d="M299.788 50.9736C278.698 50.9736 261.602 68.0704 261.602 89.1603V162.55V163.445H261.653C262.096 167.308 265.377 170.307 269.358 170.307C273.339 170.307 276.62 167.308 277.064 163.445H277.164C277.591 167.308 280.745 170.307 284.573 170.307C288.401 170.307 291.556 167.308 291.982 163.445H292.083C292.526 167.308 295.807 170.307 299.788 170.307C303.769 170.307 307.05 167.308 307.494 163.445H307.594C308.021 167.308 311.175 170.307 315.003 170.307C318.831 170.307 321.986 167.308 322.412 163.445H322.513C322.956 167.308 326.237 170.307 330.218 170.307C334.199 170.307 337.48 167.308 337.924 163.445H337.975V162.55V89.1603C337.975 68.0704 320.878 50.9736 299.788 50.9736Z" fill="#C7E1FF"/>
<path d="M279.8 68.5686C287.873 68.5686 294.418 62.6263 294.418 55.296C294.418 47.9658 287.873 42.0234 279.8 42.0234C271.726 42.0234 265.182 47.9658 265.182 55.296C265.182 62.6263 271.726 68.5686 279.8 68.5686Z" fill="white"/>
<path d="M279.8 61.6255C283.108 61.6255 285.789 58.944 285.789 55.6362C285.789 52.3284 283.108 49.6469 279.8 49.6469C276.492 49.6469 273.811 52.3284 273.811 55.6362C273.811 58.944 276.492 61.6255 279.8 61.6255Z" fill="#1D1D1B"/>
<path d="M274.676 55.6362C274.676 55.6362 276.731 55.333 276.983 54.8006C276.983 54.8006 277.619 56.5531 277.73 56.6862C277.73 56.6862 275.844 58.3055 275.437 58.128C275.031 57.9506 274.676 55.6436 274.676 55.6436V55.6362Z" fill="white"/>
<path d="M279.8 69.7619C288.421 69.7619 295.612 63.3912 295.612 55.296C295.612 47.2009 288.421 40.8301 279.8 40.8301C271.178 40.8301 263.988 47.2009 263.988 55.296C263.988 63.3912 271.178 69.7619 279.8 69.7619Z" stroke="#E3F0FF" stroke-width="2.38667"/>
<path d="M317.987 68.5686C326.061 68.5686 332.606 62.6263 332.606 55.296C332.606 47.9658 326.061 42.0234 317.987 42.0234C309.914 42.0234 303.369 47.9658 303.369 55.296C303.369 62.6263 309.914 68.5686 317.987 68.5686Z" fill="white"/>
<path d="M317.987 61.6255C321.295 61.6255 323.977 58.944 323.977 55.6362C323.977 52.3284 321.295 49.6469 317.987 49.6469C314.68 49.6469 311.998 52.3284 311.998 55.6362C311.998 58.944 314.68 61.6255 317.987 61.6255Z" fill="#1D1D1B"/>
<path d="M312.863 55.6362C312.863 55.6362 314.919 55.333 315.17 54.8006C315.17 54.8006 315.806 56.5531 315.917 56.6862C315.917 56.6862 314.032 58.3055 313.625 58.128C313.218 57.9506 312.863 55.6436 312.863 55.6436V55.6362Z" fill="white"/>
<path d="M317.987 69.7619C326.609 69.7619 333.799 63.3912 333.799 55.296C333.799 47.2009 326.609 40.8301 317.987 40.8301C309.366 40.8301 302.176 47.2009 302.176 55.296C302.176 63.3912 309.366 69.7619 317.987 69.7619Z" stroke="#E3F0FF" stroke-width="2.38667"/>
<path d="M172.867 57.6017L132.037 128.319C127.204 136.69 133.243 147.149 142.909 147.149H224.562C234.228 147.149 240.267 136.69 235.434 128.319L194.61 57.6017C189.777 49.2304 177.7 49.2304 172.867 57.6017Z" fill="#132D96"/>
<path d="M181.018 50.9727H186.585C194.282 50.9727 200.529 57.2198 200.529 64.9168V67.3273H167.068V64.9168C167.068 57.2198 173.315 50.9727 181.012 50.9727H181.018Z" fill="#DCC61F"/>
<path d="M179.581 51.8555C179.581 51.8555 167.498 53.2696 168.184 66.9332L170.076 68.1922H182.815C182.815 68.1922 172.182 70.6027 179.581 51.8555Z" fill="#F5E43E"/>
<path d="M201.597 66.9277H165.874C165.179 66.9277 164.615 67.4914 164.615 68.1867C164.615 68.882 165.179 69.4457 165.874 69.4457H201.597C202.292 69.4457 202.856 68.882 202.856 68.1867C202.856 67.4914 202.292 66.9277 201.597 66.9277Z" fill="#F0DA35"/>
<path fill-rule="evenodd" clip-rule="evenodd" d="M61.1476 12.833C40.0577 12.833 22.9609 29.9297 22.9609 51.0196V124.41V125.305H23.012C23.4557 129.167 26.7364 132.166 30.7176 132.166C34.6988 132.166 37.9795 129.167 38.4232 125.305H38.5234C38.9501 129.167 42.1045 132.166 45.9326 132.166C49.7607 132.166 52.9152 129.167 53.3418 125.305H53.442C53.8857 129.167 57.1664 132.166 61.1476 132.166C65.1288 132.166 68.4095 129.167 68.8532 125.305H68.9534C69.3801 129.167 72.5345 132.166 76.3626 132.166C80.1907 132.166 83.3452 129.167 83.7718 125.305H83.872C84.3157 129.167 87.5964 132.166 91.5776 132.166C95.5588 132.166 98.8395 129.167 99.2832 125.305H99.3343V124.41V51.0197C99.3343 29.9298 82.2375 12.833 61.1476 12.833Z" fill="#EEEEEE"/>
<path d="M63.2082 75.7278C71.2817 75.7278 77.8265 69.7855 77.8265 62.4552C77.8265 55.125 71.2817 49.1826 63.2082 49.1826C55.1347 49.1826 48.5898 55.125 48.5898 62.4552C48.5898 69.7855 55.1347 75.7278 63.2082 75.7278Z" fill="white"/>
<path d="M63.2081 68.7852C66.5159 68.7852 69.1974 66.1037 69.1974 62.7959C69.1974 59.4881 66.5159 56.8066 63.2081 56.8066C59.9003 56.8066 57.2188 59.4881 57.2188 62.7959C57.2188 66.1037 59.9003 68.7852 63.2081 68.7852Z" fill="#1D1D1B"/>
<path d="M58.084 62.7955C58.084 62.7955 60.1396 62.4923 60.391 61.96C60.391 61.96 61.0269 63.7124 61.1378 63.8455C61.1378 63.8455 59.2523 65.4648 58.8456 65.2874C58.4389 65.1099 58.084 62.8029 58.084 62.8029V62.7955Z" fill="white"/>
<path d="M76.6332 58.4309C76.6332 55.0286 75.093 51.7657 72.3515 49.3599C69.6101 46.9541 65.8918 45.6025 62.0148 45.6025C58.1378 45.6025 54.4196 46.9541 51.6781 49.3599C48.9366 51.7656 47.3965 55.0286 47.3965 58.4309L62.0148 58.4309H76.6332Z" fill="#D9D9D9"/>
<path d="M39.8096 83.6962C35.2002 80.9503 52.3422 84.4195 66.778 84.5912C79.7195 84.745 90.0397 82.218 86.6479 84.5912C79.8456 89.3505 76.5288 95.673 66.778 96.4255C55.0721 97.3289 48.6305 88.951 39.8096 83.6962Z" fill="#1D1D1B" stroke="black" stroke-width="0.596667"/>
<mask id="mask0_2025_3219" style="mask-type:alpha" maskUnits="userSpaceOnUse" x="38" y="82" width="50" height="15">
<path d="M39.8096 83.6962C35.2002 80.9503 52.3422 84.4195 66.778 84.5912C79.7195 84.745 90.0397 82.218 86.6479 84.5912C79.8456 89.3505 76.5288 95.673 66.778 96.4255C55.0721 97.3289 48.6305 88.951 39.8096 83.6962Z" fill="#1D1D1B" stroke="black" stroke-width="0.596667"/>
</mask>
<g mask="url(#mask0_2025_3219)">
</g>
<path d="M24.0399 56.4387C22.5432 52.6826 21.937 48.6143 22.2558 44.4661C22.5746 40.3179 23.8123 36.171 25.8981 32.2622C27.9839 28.3534 30.8771 24.7592 34.4123 21.6849C37.9476 18.6105 42.0558 16.1162 46.5023 14.3444C50.9488 12.5726 55.6465 11.558 60.3273 11.3584C65.0081 11.1589 69.5803 11.7783 73.7828 13.1814C77.9853 14.5845 81.7358 16.7438 84.8201 19.5359C87.9045 22.3281 90.2623 25.6984 91.759 29.4545L57.8995 42.9466L24.0399 56.4387Z" fill="#209742"/>
<rect x="0.261719" y="59.4453" width="98.5547" height="7.13923" rx="3.56961" transform="rotate(-22 0.261719 59.4453)" fill="#209742"/>
<path d="M47.0224 41.3969C44.9239 36.2028 47.4333 30.291 52.6274 28.1924L53.1806 27.9689C58.3747 25.8704 64.2866 28.3798 66.3851 33.5739L47.0224 41.3969Z" fill="#EEEEEE"/>
<circle cx="45.9067" cy="13.728" r="2.08833" fill="#209742"/>
</svg>
