<svg width="767" height="301" viewBox="0 0 767 301" fill="none" xmlns="http://www.w3.org/2000/svg">
<path d="M-1 300.861C-1 300.861 132.532 279.407 219.5 280.524C295.853 281.504 336.177 299.165 412.5 300.861C488.542 302.55 530.427 288.298 606.5 289.239C669.56 290.02 767 300.861 767 300.861V0H-1V300.861Z" fill="#7791FA"/>
<path d="M767 0H-1V37.7035C-1 37.7035 30.5587 41.8406 50.9329 41.3512C93.3667 40.332 154.04 17.641 154.04 17.641C154.04 17.641 210.905 40.0773 251.083 41.3512C297.301 42.8166 364.425 17.641 364.425 17.641C364.425 17.641 393.938 35.0095 412.568 37.7035C436.22 41.1238 461.468 22.852 461.468 22.852C461.468 22.852 472.82 35.6874 483.454 37.7035C497.823 40.4276 511.126 22.852 511.126 22.852C511.126 22.852 552.368 55.3928 586.941 54.3788C619.265 53.4307 655.932 22.852 655.932 22.852C655.932 22.852 687.102 38.5511 710.518 41.3512C732.345 43.9613 767 37.7035 767 37.7035V0Z" fill="white"/>
</svg>
