<svg width="768" height="458" viewBox="0 0 768 458" fill="none" xmlns="http://www.w3.org/2000/svg">
<rect width="768" height="457.998" fill="#7791FA"/>
<path d="M0 0H768V37.7858C768 37.7858 736.441 41.9319 716.067 41.4415C673.633 40.42 612.96 17.6795 612.96 17.6795C612.96 17.6795 556.095 40.1648 515.917 41.4415C469.699 42.9101 402.575 17.6795 402.575 17.6795C402.575 17.6795 373.062 35.086 354.432 37.7858C330.78 41.2136 305.532 22.9019 305.532 22.9019C305.532 22.9019 294.18 35.7653 283.546 37.7858C269.177 40.5158 255.874 22.9019 255.874 22.9019C255.874 22.9019 214.632 55.5137 180.059 54.4975C147.735 53.5474 111.068 22.9019 111.068 22.9019C111.068 22.9019 79.8976 38.6353 56.4817 41.4415C34.655 44.0572 0 37.7858 0 37.7858V0Z" fill="white"/>
</svg>
