<svg width="1076" height="771" viewBox="0 0 1076 771" fill="none" xmlns="http://www.w3.org/2000/svg">
<ellipse cx="438.512" cy="32.3454" rx="9.18291" ry="9.12289" transform="rotate(-2.18406 438.512 32.3454)" fill="#FFFF91"/>
<ellipse cx="165.851" cy="111.689" rx="5.73932" ry="5.70181" transform="rotate(-2.18406 165.851 111.689)" fill="#7791FA"/>
<ellipse cx="560.577" cy="733.013" rx="5.73932" ry="5.70181" transform="rotate(-2.18406 560.577 733.013)" fill="#7791FA"/>
<ellipse cx="361.433" cy="752.095" rx="5.73932" ry="5.70181" transform="rotate(-2.18406 361.433 752.095)" fill="#7791FA"/>
<ellipse cx="584.727" cy="131.3" rx="9.18291" ry="9.12289" transform="rotate(-2.18406 584.727 131.3)" fill="#8BA5FF"/>
<ellipse cx="665.843" cy="29.4409" rx="5.73932" ry="5.70181" transform="rotate(-2.18406 665.843 29.4409)" fill="#7791FA"/>
<ellipse cx="1039.11" cy="27.8181" rx="9.18291" ry="9.12289" transform="rotate(-2.18406 1039.11 27.8181)" fill="#B3CDFF"/>
<ellipse cx="859.336" cy="163.33" rx="9.18291" ry="9.12289" transform="rotate(-2.18406 859.336 163.33)" fill="#FFFFB9"/>
<ellipse cx="502.633" cy="659.387" rx="9.18291" ry="9.12289" transform="rotate(-2.18406 502.633 659.387)" fill="#FFFF91"/>
<ellipse cx="669.418" cy="574.914" rx="9.18291" ry="9.12289" transform="rotate(-2.18406 669.418 574.914)" fill="#FFFF91"/>
<ellipse cx="10.0942" cy="63.6169" rx="9.18291" ry="9.12289" transform="rotate(-2.18406 10.0942 63.6169)" fill="#FFFFB9"/>
</svg>
