<svg width="765" height="578" fill="none" xmlns="http://www.w3.org/2000/svg"><ellipse cx="311.344" cy="23.608" rx="6.52" ry="6.477" transform="rotate(-2.184 311.344 23.608)" fill="#FFFF91"/><ellipse cx="117.754" cy="79.941" rx="4.075" ry="4.048" transform="rotate(-2.184 117.754 79.941)" fill="#7791FA"/><ellipse cx="422.226" cy="539.201" rx="4.075" ry="4.048" transform="rotate(-2.184 422.226 539.201)" fill="#7791FA"/><ellipse cx="259.226" cy="564.201" rx="4.075" ry="4.048" transform="rotate(-2.184 259.226 564.201)" fill="#7791FA"/><ellipse cx="415.157" cy="93.866" rx="6.52" ry="6.477" transform="rotate(-2.184 415.157 93.866)" fill="#8BA5FF"/><ellipse cx="472.748" cy="21.547" rx="4.075" ry="4.048" transform="rotate(-2.184 472.748 21.547)" fill="#7791FA"/><ellipse cx="737.768" cy="20.395" rx="6.52" ry="6.477" transform="rotate(-2.184 737.768 20.395)" fill="#B3CDFF"/><ellipse cx="346.762" cy="501.72" rx="6.52" ry="6.477" transform="rotate(-2.184 346.762 501.72)" fill="#FFFF91"/><ellipse cx="502.762" cy="446.72" rx="6.52" ry="6.477" transform="rotate(-2.184 502.762 446.72)" fill="#FFFF91"/><ellipse cx="7.166" cy="45.812" rx="6.52" ry="6.477" transform="rotate(-2.184 7.166 45.812)" fill="#FFFFB9"/></svg>