<svg width="32" height="32" viewBox="0 0 32 32" fill="none" xmlns="http://www.w3.org/2000/svg">
<path d="M18.6667 12.4V16.2667H22.1333C22.4 16.2667 22.5333 16.5333 22.5333 16.8L22 19.3333C22 19.4667 21.7333 19.6 21.6 19.6H18.6667V29.3333H14.6667V19.7333H12.4C12.1333 19.7333 12 19.6 12 19.3333V16.8C12 16.5333 12.1333 16.4 12.4 16.4H14.6667V12C14.6667 9.73333 16.4 8 18.6667 8H22.2667C22.5333 8 22.6667 8.13333 22.6667 8.4V11.6C22.6667 11.8667 22.5333 12 22.2667 12H19.0667C18.8 12 18.6667 12.1333 18.6667 12.4Z" stroke="white" stroke-width="1.9" stroke-miterlimit="10" stroke-linecap="round"/>
<path d="M25.3327 2.66663H6.66602C4.45688 2.66663 2.66602 4.45749 2.66602 6.66663V25.3333C2.66602 27.5425 4.45688 29.3333 6.66602 29.3333H25.3327C27.5419 29.3333 29.3327 27.5425 29.3327 25.3333V6.66663C29.3327 4.45749 27.5419 2.66663 25.3327 2.66663Z" stroke="white" stroke-width="1.9"/>
</svg>
