<svg width="32" height="32" viewBox="0 0 32 32" fill="none" xmlns="http://www.w3.org/2000/svg">
<path d="M25.3327 2.66663H6.66602C4.45688 2.66663 2.66602 4.45749 2.66602 6.66663V25.3333C2.66602 27.5425 4.45688 29.3333 6.66602 29.3333H25.3327C27.5419 29.3333 29.3327 27.5425 29.3327 25.3333V6.66663C29.3327 4.45749 27.5419 2.66663 25.3327 2.66663Z" stroke="white" stroke-width="1.9"/>
<path d="M21.3327 16C21.3327 13.0544 18.9448 10.6666 15.9993 10.6666C13.0538 10.6666 10.666 13.0544 10.666 16C10.666 18.9455 13.0538 21.3333 15.9993 21.3333C18.9448 21.3333 21.3327 18.9455 21.3327 16Z" stroke="white" stroke-width="1.9"/>
<path d="M25.9993 8.33329C25.9993 7.41283 25.2532 6.66663 24.3327 6.66663C23.4122 6.66663 22.666 7.41283 22.666 8.33329C22.666 9.25376 23.4122 9.99996 24.3327 9.99996C25.2532 9.99996 25.9993 9.25376 25.9993 8.33329Z" fill="white"/>
</svg>
