<svg xmlns="http://www.w3.org/2000/svg" width="360" height="89" viewBox="0 0 360 89" fill="none">
  <path d="M-204 81.5L230.34 75L222.176 8.11401C140.666 4.42564 106.47 13.1009 95.4027 19.6074C90.4171 22.5386 85.2141 26.3293 85.2141 26.3293C85.2141 26.3293 72.4985 -0.154709 60.6207 0.967377C49.5153 2.01649 37.1626 21.6174 37.1626 21.6174C37.1626 21.6174 26.7036 8.36641 17.1266 10.5118C10.3631 12.027 0.366943 28.0017 0.366943 28.0017C-19.5577 13.4903 -30.7835 13.6168 -50.7248 27.1263C-66.7262 4.15919 -78.142 5.24103 -101.817 26.2508C-121.753 18.6555 -135.045 21.6174 -152.908 33.3754C-174.842 15.7454 -185.912 26.5721 -204 42.5V81.5Z" fill="#455FC8"/>
  <path d="M230.34 75L222.176 8.11401C237.869 14.2732 255.904 17.3347 278.623 29.9825C278.623 29.9825 291.063 -1.92942 301.012 0.0921478C309.119 1.73928 315.629 17.3347 315.629 17.3347C315.629 17.3347 318.156 10.5223 321.588 9.73045C325.864 8.74399 330.526 17.3347 330.526 17.3347C330.526 17.3347 336.954 10.1142 344.129 8.11401C353.163 5.59566 360.133 28.0017 360.133 28.0017C372.269 22.2248 377.913 17.6532 385.616 29.6265C392.112 19.5 419.094 11.3347 436.083 34C483.053 0 528.023 7 564 39V89L230.34 75Z" fill="#455FC8"/>
</svg>