<svg width="1024" height="622" viewBox="0 0 1024 622" fill="none" xmlns="http://www.w3.org/2000/svg">
<path d="M0 578.578H654.571L631.333 471.126C399.333 465.201 302 479.137 270.5 489.59C256.309 494.299 241.5 500.389 241.5 500.389C241.5 500.389 205.308 457.842 171.5 459.645C139.891 461.33 104.731 492.819 104.731 492.819C104.731 492.819 74.9618 471.532 47.703 474.978C28.4519 477.412 0 503.076 0 503.076V578.578Z" fill="#455FC8"/>
<path d="M654.571 578.578L631.333 471.126C676 481.021 727.333 485.939 792 506.258C792 506.258 827.407 454.991 855.726 458.239C878.799 460.885 897.331 485.939 897.331 485.939C897.331 485.939 904.521 474.995 914.29 473.723C926.46 472.138 939.73 485.939 939.73 485.939C939.73 485.939 958.027 474.339 978.449 471.126C1004.16 467.08 1024 503.076 1024 503.076V578.578H654.571Z" fill="#455FC8"/>
<path d="M0 545.055V621.519H1024V535.638C1014.67 517.558 998 470.474 938 531.494C931.333 520.194 912.667 501.361 898 531.494C656.667 313.403 446 218.859 106.667 535.261C51.2 470.474 12.4444 514.796 0 545.055Z" fill="#637DE6"/>
<path d="M642.366 57.3136C647.91 55.4324 655.022 55.6614 658.97 62.6864C661.675 67.4994 661.298 77.7879 651.433 81.1456C647.316 82.5467 642.604 83.0272 635.803 82.0222C632.645 81.5555 631.134 87.3088 630.196 88.4583" stroke="#E3F0FF" stroke-width="3.02344" stroke-linecap="round"/>
<ellipse cx="1.72646" cy="1.7283" rx="1.72646" ry="1.7283" transform="matrix(0.988946 0.148274 -0.148037 0.988982 625.18 93.2627)" fill="#E3F0FF"/>
<path d="M364.243 140.241C418.513 139.223 357.106 233.014 381.8 233.014C400.359 233.014 387.379 221.685 421.826 219.96C452.941 218.403 540.585 198.386 494.289 122.158C470.851 83.5664 391.084 91.8904 411.454 140.241M431.704 114.969C393.961 114.969 388.165 212.54 411.454 219.96C543.008 261.876 462.325 114.969 431.704 114.969Z" stroke="#E3F0FF" stroke-width="3.02344" stroke-linecap="round"/>
<path d="M467.07 208.207C531.133 231.241 493.283 164.704 484.36 126.797C457.619 13.1937 702.234 192.078 600.967 225.269C581.729 231.575 530.606 203.025 536.64 178.678C542.675 154.33 600.967 160.569 620.184 197.552M567.961 237.479C525.459 247.765 504.882 159.72 519.013 139.529C583.782 46.9779 688.909 208.207 567.961 237.479Z" stroke="#E3F0FF" stroke-width="3.02344" stroke-linecap="round"/>
<path d="M317.111 112.839C316.259 106.482 318.003 98.8848 326.373 96.1201C332.108 94.2259 343.071 96.7973 344.597 108.109C345.234 112.829 344.758 117.996 342.247 125.096C341.081 128.392 346.938 131.228 347.974 132.479" stroke="#E3F0FF" stroke-width="3.02344" stroke-linecap="round"/>
<ellipse cx="1.89151" cy="1.88988" rx="1.89151" ry="1.88988" transform="matrix(0.335385 -0.942081 0.941908 0.335872 352.948 138.373)" fill="#E3F0FF"/>
<path d="M642.445 306.33C643.664 311.53 642.833 317.967 636.119 320.936C631.519 322.969 622.225 321.725 620.047 312.473C619.138 308.613 619.116 304.292 620.623 298.205C621.323 295.378 616.24 293.502 615.281 292.549" stroke="#E3F0FF" stroke-width="3.02344" stroke-linecap="round"/>
<ellipse cx="1.86179" cy="1.8604" rx="1.86179" ry="1.8604" transform="matrix(-0.208274 0.978071 -0.978001 -0.2086 608.784 285.135)" fill="#E3F0FF"/>
<path d="M478.159 8.27393H493.28C495.954 8.27393 498.518 9.3369 500.409 11.229C502.299 13.1211 503.361 15.6874 503.361 18.3632V53.6758C503.361 51.669 502.565 49.7443 501.147 48.3252C499.729 46.9061 497.806 46.1089 495.801 46.1089H478.159V8.27393Z" stroke="#B3CDFF" stroke-width="3.7793" stroke-linecap="round" stroke-linejoin="round"/>
<path d="M484.456 18.8477H497.306" stroke="#B3CDFF" stroke-width="1.51172" stroke-linecap="round"/>
<path d="M484.456 24.8945H497.306" stroke="#B3CDFF" stroke-width="1.51172" stroke-linecap="round"/>
<path d="M484.456 30.9414H497.306" stroke="#B3CDFF" stroke-width="1.51172" stroke-linecap="round"/>
<path d="M484.456 36.9883H497.306" stroke="#B3CDFF" stroke-width="1.51172" stroke-linecap="round"/>
<path d="M528.564 8.27393H513.442C510.769 8.27393 508.205 9.3369 506.314 11.229C504.423 13.1211 503.361 15.6874 503.361 18.3632V53.6758C503.361 51.669 504.158 49.7443 505.576 48.3252C506.994 46.9061 508.917 46.1089 510.922 46.1089H528.564V8.27393Z" stroke="#B3CDFF" stroke-width="3.7793" stroke-linecap="round" stroke-linejoin="round"/>
<path d="M510.155 18.8477H523.005" stroke="#B3CDFF" stroke-width="1.51172" stroke-linecap="round"/>
<path d="M510.155 24.8945H523.005" stroke="#B3CDFF" stroke-width="1.51172" stroke-linecap="round"/>
<path d="M510.155 30.9414H523.005" stroke="#B3CDFF" stroke-width="1.51172" stroke-linecap="round"/>
<path d="M510.155 36.9883H523.005" stroke="#B3CDFF" stroke-width="1.51172" stroke-linecap="round"/>
<g clip-path="url(#clip0_10905_64099)">
<path d="M712.793 156.468L710.619 171.444C710.235 174.093 708.815 176.479 706.672 178.08C704.529 179.68 701.839 180.363 699.193 179.978L664.276 174.9C666.261 175.189 668.278 174.677 669.885 173.477C671.492 172.276 672.557 170.486 672.846 168.5L675.382 151.027L712.793 156.468Z" stroke="#B3CDFF" stroke-width="3.7793" stroke-linecap="round" stroke-linejoin="round"/>
<path d="M701.419 161.174L699.573 173.891" stroke="#B3CDFF" stroke-width="1.51172" stroke-linecap="round"/>
<path d="M695.436 160.304L693.589 173.02" stroke="#B3CDFF" stroke-width="1.51172" stroke-linecap="round"/>
<path d="M689.452 159.434L687.605 172.15" stroke="#B3CDFF" stroke-width="1.51172" stroke-linecap="round"/>
<path d="M683.467 158.563L681.621 171.28" stroke="#B3CDFF" stroke-width="1.51172" stroke-linecap="round"/>
<path d="M705.545 206.391L707.719 191.414C708.104 188.766 707.421 186.074 705.822 183.929C704.223 181.785 701.839 180.364 699.193 179.979L664.276 174.901C666.26 175.19 668.049 176.255 669.248 177.864C670.447 179.472 670.959 181.492 670.671 183.478L668.134 200.95L705.545 206.391Z" stroke="#B3CDFF" stroke-width="3.7793" stroke-linecap="round" stroke-linejoin="round"/>
<path d="M697.727 186.606L695.881 199.323" stroke="#B3CDFF" stroke-width="1.51172" stroke-linecap="round"/>
<path d="M691.743 185.736L689.896 198.453" stroke="#B3CDFF" stroke-width="1.51172" stroke-linecap="round"/>
<path d="M685.759 184.866L683.913 197.582" stroke="#B3CDFF" stroke-width="1.51172" stroke-linecap="round"/>
<path d="M679.775 183.996L677.929 196.712" stroke="#B3CDFF" stroke-width="1.51172" stroke-linecap="round"/>
</g>
<g clip-path="url(#clip1_10905_64099)">
<path d="M348.729 318.675L337.663 308.362C335.706 306.538 334.554 304.011 334.459 301.337C334.363 298.663 335.334 296.061 337.156 294.102L361.201 268.26C359.835 269.728 359.107 271.68 359.178 273.686C359.25 275.691 360.114 277.586 361.582 278.954L374.493 290.987L348.729 318.675Z" stroke="#B3CDFF" stroke-width="3.7793" stroke-linecap="round" stroke-linejoin="round"/>
<path d="M351.329 306.64L341.928 297.879" stroke="#B3CDFF" stroke-width="1.51172" stroke-linecap="round"/>
<path d="M355.448 302.213L346.048 293.452" stroke="#B3CDFF" stroke-width="1.51172" stroke-linecap="round"/>
<path d="M359.567 297.786L350.167 289.025" stroke="#B3CDFF" stroke-width="1.51172" stroke-linecap="round"/>
<path d="M363.686 293.359L354.285 284.598" stroke="#B3CDFF" stroke-width="1.51172" stroke-linecap="round"/>
<path d="M311.842 284.296L322.908 294.61C324.865 296.433 327.465 297.404 330.137 297.309C332.809 297.214 335.334 296.06 337.156 294.102L361.201 268.259C359.835 269.728 357.941 270.593 355.937 270.664C353.933 270.736 351.983 270.008 350.515 268.64L337.605 256.607L311.842 284.296Z" stroke="#B3CDFF" stroke-width="3.7793" stroke-linecap="round" stroke-linejoin="round"/>
<path d="M332.528 289.118L323.128 280.357" stroke="#B3CDFF" stroke-width="1.51172" stroke-linecap="round"/>
<path d="M336.647 284.691L327.247 275.931" stroke="#B3CDFF" stroke-width="1.51172" stroke-linecap="round"/>
<path d="M340.767 280.264L331.366 271.503" stroke="#B3CDFF" stroke-width="1.51172" stroke-linecap="round"/>
<path d="M344.886 275.837L335.486 267.077" stroke="#B3CDFF" stroke-width="1.51172" stroke-linecap="round"/>
</g>
<path d="M566.993 241.732L583.018 209.888L596.574 216.72C599.691 218.292 600.946 222.094 599.377 225.212L589.035 245.763C587.466 248.882 583.666 250.136 580.549 248.565L566.993 241.732Z" fill="#D7D7D7"/>
<path d="M588.68 246.469L599.732 224.507L601.218 225.257C604.336 226.828 605.591 230.63 604.022 233.749L598.653 244.417C597.084 247.535 593.285 248.79 590.167 247.218L588.68 246.469Z" fill="#EA5858"/>
<rect width="35.6488" height="3.07168" transform="matrix(0.449514 -0.893273 0.892977 0.450101 571.931 244.222)" fill="#868686"/>
<rect width="35.6488" height="3.07168" transform="matrix(0.449514 -0.893273 0.892977 0.450101 578.513 247.54)" fill="#868686"/>
<rect width="35.6488" height="142.022" transform="matrix(0.449514 -0.893273 0.892977 0.450101 440.614 178.121)" fill="#FF5A5A"/>
<rect width="11.0634" height="142.022" transform="matrix(0.449514 -0.893273 0.892977 0.450101 446.14 167.141)" fill="#F40000"/>
<path d="M440.526 178.075L416.065 149.141C413.755 147.27 415 142.951 418.76 143.787L456.551 146.231C459.478 153.088 457.99 155.353 451.02 157.221C453.912 162.824 453.139 165.094 446.057 167.085C448.175 173.979 447.475 176.698 440.526 178.075Z" fill="#F9E0B2"/>
<path d="M421.917 155.977L416.066 149.141C413.756 147.27 415 142.951 418.76 143.787L427.731 144.423C429.538 150.986 427.662 152.867 421.917 155.977Z" fill="#E3F0FF"/>
<path d="M482.422 309.498C482.422 322.086 472.193 332.301 459.561 332.301C446.93 332.301 436.701 322.086 436.701 309.498C436.701 296.909 446.93 286.694 459.561 286.694C472.193 286.694 482.422 296.909 482.422 309.498Z" stroke="black" stroke-width="5.74909"/>
<path d="M465.769 309.12C465.769 312.324 463.165 314.931 459.939 314.931C456.714 314.931 454.109 312.324 454.109 309.12C454.109 305.917 456.714 303.31 459.939 303.31C463.165 303.31 465.769 305.917 465.769 309.12Z" stroke="black" stroke-width="5.74909"/>
<path d="M460.318 284.575V301.19" stroke="#1D1D1B" stroke-width="4.31182"/>
<path d="M442.909 292.127L454.694 303.865" stroke="#1D1D1B" stroke-width="4.31182"/>
<path d="M442.909 326.113L454.694 314.375" stroke="#1D1D1B" stroke-width="4.31182"/>
<path d="M477.727 292.127L465.941 303.865" stroke="#1D1D1B" stroke-width="4.31182"/>
<path d="M477.727 326.113L465.941 314.375" stroke="#1D1D1B" stroke-width="4.31182"/>
<path d="M460.318 317.805V334.421" stroke="#1D1D1B" stroke-width="4.31182"/>
<path d="M468.644 309.497H484.539" stroke="#1D1D1B" stroke-width="4.31182"/>
<path d="M434.583 309.497H451.236" stroke="#1D1D1B" stroke-width="4.31182"/>
<path d="M567.196 309.498C567.196 322.086 556.967 332.301 544.335 332.301C531.704 332.301 521.475 322.086 521.475 309.498C521.475 296.909 531.704 286.694 544.335 286.694C556.967 286.694 567.196 296.909 567.196 309.498Z" stroke="black" stroke-width="5.74909"/>
<path d="M550.543 309.12C550.543 312.324 547.939 314.931 544.713 314.931C541.487 314.931 538.883 312.324 538.883 309.12C538.883 305.917 541.487 303.31 544.713 303.31C547.939 303.31 550.543 305.917 550.543 309.12Z" stroke="black" stroke-width="5.74909"/>
<path d="M545.092 284.575V301.19" stroke="#1D1D1B" stroke-width="4.31182"/>
<path d="M527.683 292.127L539.468 303.865" stroke="#1D1D1B" stroke-width="4.31182"/>
<path d="M527.683 326.113L539.468 314.375" stroke="#1D1D1B" stroke-width="4.31182"/>
<path d="M562.5 292.127L550.715 303.865" stroke="#1D1D1B" stroke-width="4.31182"/>
<path d="M562.5 326.113L550.715 314.375" stroke="#1D1D1B" stroke-width="4.31182"/>
<path d="M545.092 317.805V334.421" stroke="#1D1D1B" stroke-width="4.31182"/>
<path d="M553.418 309.497H569.313" stroke="#1D1D1B" stroke-width="4.31182"/>
<path d="M519.357 309.497H536.009" stroke="#1D1D1B" stroke-width="4.31182"/>
<path d="M465.12 178.56C465.808 173.009 472.253 170.284 476.74 173.648L506.548 195.989L460.55 215.435L465.12 178.56Z" fill="#F2B441"/>
<path d="M431.693 212.478C429.416 207.364 433.545 201.704 439.132 202.28L476.201 206.107L446.802 246.407L431.693 212.478Z" fill="#F2B441"/>
<path d="M425.833 254.637C420.974 251.83 420.974 244.816 425.833 242.009L458.047 223.4V273.246L425.833 254.637Z" fill="#F2B441"/>
<path d="M443.261 294.899C437.759 295.571 433.585 290.054 435.75 284.972L445.48 262.127C447.644 257.046 454.519 256.21 457.856 260.621L472.857 280.447C476.194 284.858 473.492 291.209 467.993 291.88L443.261 294.899Z" fill="#F2B441"/>
<path d="M480.872 318.77C476.447 322.095 470.084 319.405 469.411 313.925L466.387 289.281C465.714 283.795 471.248 279.629 476.345 281.784L499.269 291.475C504.366 293.63 505.201 300.489 500.771 303.818L480.872 318.77Z" fill="#F2B441"/>
<path d="M537.262 180.826C536.574 175.274 530.13 172.55 525.642 175.913L495.834 198.254L541.832 217.7L537.262 180.826Z" fill="#F2B441"/>
<path d="M570.689 214.744C572.966 209.63 568.837 203.969 563.25 204.546L526.182 208.372L555.58 248.673L570.689 214.744Z" fill="#F2B441"/>
<path d="M576.55 256.903C581.409 254.096 581.409 247.082 576.55 244.275L544.335 225.666V275.512L576.55 256.903Z" fill="#F2B441"/>
<path d="M559.122 297.165C564.624 297.837 568.798 292.32 566.633 287.237L556.902 264.392C554.739 259.312 547.864 258.476 544.527 262.886L529.526 282.713C526.188 287.124 528.891 293.475 534.39 294.146L559.122 297.165Z" fill="#F2B441"/>
<path d="M521.511 321.035C525.936 324.36 532.299 321.67 532.972 316.19L535.996 291.547C536.669 286.061 531.135 281.894 526.038 284.049L503.114 293.741C498.016 295.895 497.182 302.755 501.612 306.083L521.511 321.035Z" fill="#F2B441"/>
<ellipse cx="501.191" cy="249.456" rx="52.9838" ry="52.4893" fill="#F2B441"/>
<path d="M490.973 241.526C499.124 241.526 505.732 235.609 505.732 228.31C505.732 221.01 499.124 215.093 490.973 215.093C482.821 215.093 476.213 221.01 476.213 228.31C476.213 235.609 482.821 241.526 490.973 241.526Z" fill="white"/>
<path d="M490.594 234.729C493.939 234.729 496.65 232.024 496.65 228.687C496.65 225.351 493.939 222.646 490.594 222.646C487.25 222.646 484.539 225.351 484.539 228.687C484.539 232.024 487.25 234.729 490.594 234.729Z" fill="#1D1D1B"/>
<path d="M486.053 228.69C486.053 228.69 488.094 228.417 488.34 227.932C488.34 227.932 488.968 229.515 489.08 229.638C489.08 229.638 487.211 231.098 486.808 230.941C486.404 230.784 486.053 228.69 486.053 228.69Z" fill="white"/>
<path d="M516.708 241.526C524.859 241.526 531.467 235.609 531.467 228.31C531.467 221.01 524.859 215.093 516.708 215.093C508.556 215.093 501.948 221.01 501.948 228.31C501.948 235.609 508.556 241.526 516.708 241.526Z" fill="white"/>
<path d="M516.329 234.729C519.673 234.729 522.385 232.024 522.385 228.687C522.385 225.351 519.673 222.646 516.329 222.646C512.985 222.646 510.274 225.351 510.274 228.687C510.274 232.024 512.985 234.729 516.329 234.729Z" fill="#1D1D1B"/>
<path d="M511.788 228.69C511.788 228.69 513.828 228.417 514.075 227.932C514.075 227.932 514.703 229.515 514.815 229.638C514.815 229.638 512.946 231.098 512.543 230.941C512.139 230.784 511.788 228.69 511.788 228.69Z" fill="white"/>
<path d="M489.082 251.701C509.72 253.97 514.907 252.928 523.789 247.981C532.668 243.027 537.035 245.615 537.035 245.615C537.035 245.615 542.119 246.468 524.052 266.61C510.158 282.1 502.739 279.266 491.949 272.461C484.301 267.637 479.461 256.304 480.794 252.311C482.129 248.311 483.188 251.055 489.086 251.708L489.082 251.701Z" fill="#282828"/>
<mask id="mask0_10905_64099" style="mask-type:alpha" maskUnits="userSpaceOnUse" x="480" y="244" width="58" height="34">
<path d="M489.082 251.701C509.72 253.97 514.907 252.928 523.789 247.981C532.668 243.027 537.035 245.615 537.035 245.615C537.035 245.615 542.119 246.468 524.052 266.61C510.158 282.1 502.739 279.266 491.949 272.461C484.301 267.637 479.461 256.304 480.794 252.311C482.129 248.311 483.188 251.055 489.086 251.708L489.082 251.701Z" fill="#282828"/>
</mask>
<g mask="url(#mask0_10905_64099)">
<ellipse cx="4.53265" cy="8.70337" rx="4.53265" ry="8.70337" transform="matrix(0.345735 0.938332 0.970497 -0.241115 498.92 272.491)" fill="#EB2828"/>
<path d="M483.025 249.058C483.025 249.058 489.96 262.481 494.657 262.67C499.474 262.865 497.284 252.078 497.284 252.078L483.025 249.058Z" fill="white"/>
<path d="M492.406 243.016C492.406 243.016 499.34 256.439 504.038 256.629C508.855 256.824 514.169 249.058 514.169 249.058L492.406 243.016Z" fill="white"/>
<path d="M505.163 240.016C505.163 240.016 512.098 253.439 516.795 253.628C521.612 253.823 526.926 246.057 526.926 246.057L505.163 240.016Z" fill="white"/>
<path d="M483.025 249.058C483.025 249.058 489.96 262.481 494.657 262.67C499.474 262.865 497.284 252.078 497.284 252.078L483.025 249.058Z" stroke="white" stroke-width="1.43727"/>
<path d="M492.406 243.016C492.406 243.016 499.34 256.439 504.038 256.629C508.855 256.824 514.169 249.058 514.169 249.058L492.406 243.016Z" stroke="white" stroke-width="1.43727"/>
<path d="M505.163 240.016C505.163 240.016 512.098 253.439 516.795 253.628C521.612 253.823 526.926 246.057 526.926 246.057L505.163 240.016Z" stroke="white" stroke-width="1.43727"/>
</g>
<defs>
<clipPath id="clip0_10905_64099">
<rect width="60.5349" height="60.4874" fill="white" transform="matrix(-0.143678 0.989625 -0.989591 -0.143908 721 152.564)"/>
</clipPath>
<clipPath id="clip1_10905_64099">
<rect width="60.5094" height="60.5129" fill="white" transform="matrix(-0.73155 -0.681788 0.681191 -0.732106 347.266 327.651)"/>
</clipPath>
</defs>
</svg>
