<svg width="768" height="816" viewBox="0 0 768 816" fill="none" xmlns="http://www.w3.org/2000/svg">
<path d="M0 758.188H490.928L473.5 615.907C299.5 608.061 226.5 626.515 202.875 640.356C192.232 646.591 181.125 654.655 181.125 654.655C181.125 654.655 153.981 598.317 128.625 600.704C104.918 602.936 78.5485 644.631 78.5485 644.631C78.5485 644.631 56.2214 616.444 35.7772 621.007C21.3389 624.23 0 658.212 0 658.212V758.188Z" fill="#455FC8"/>
<path d="M490.928 758.188L473.5 615.907C507 629.009 545.5 635.521 594 662.426C594 662.426 620.556 594.542 641.794 598.842C659.099 602.346 672.998 635.521 672.998 635.521C672.998 635.521 678.391 621.03 685.718 619.345C694.845 617.247 704.798 635.521 704.798 635.521C704.798 635.521 718.52 620.161 733.837 615.907C753.122 610.55 768 658.212 768 658.212V758.188H490.928Z" fill="#455FC8"/>
<path d="M0 713.798V815.047H768V701.329C761 677.388 748.5 615.043 703.5 695.843C698.5 680.88 684.5 655.942 673.5 695.843C492.5 407.06 334.5 281.87 80 700.83C38.4 615.043 9.33333 673.731 0 713.798Z" fill="#637DE6"/>
<path d="M567.849 74.8065C575.182 72.3204 584.589 72.623 589.81 81.9068C593.388 88.2673 592.889 101.864 579.841 106.301C574.397 108.153 568.165 108.788 559.169 107.46C554.992 106.843 552.994 114.446 551.753 115.965" stroke="#E3F0FF" stroke-width="4" stroke-linecap="round"/>
<circle cx="547.039" cy="124.912" r="2.28405" transform="rotate(8.52003 547.039 124.912)" fill="#E3F0FF"/>
<path d="M200 184.397C271.778 183.052 190.56 307 223.221 307C247.767 307 230.6 292.027 276.16 289.748C317.313 287.69 433.232 261.237 372 160.5C341 109.5 235.5 120.5 262.442 184.397M289.224 151C239.305 151 231.64 279.942 262.442 289.748C436.436 345.141 329.724 151 289.224 151Z" stroke="#E3F0FF" stroke-width="4" stroke-linecap="round"/>
<path d="M336 274.216C420.73 304.657 370.67 216.726 358.868 166.63C323.5 16.5002 647.031 252.902 513.093 296.765C487.65 305.097 420.033 267.369 428.015 235.192C435.997 203.016 513.093 211.261 538.51 260.135M469.44 312.9C413.227 326.494 386.011 210.14 404.7 183.457C490.365 61.1471 629.407 274.216 469.44 312.9Z" stroke="#E3F0FF" stroke-width="4" stroke-linecap="round"/>
<path d="M137.663 148.185C136.536 139.785 138.842 129.745 149.913 126.091C157.498 123.588 171.997 126.986 174.016 141.935C174.859 148.173 174.228 155.001 170.908 164.383C169.366 168.74 177.112 172.487 178.482 174.14" stroke="#E3F0FF" stroke-width="4" stroke-linecap="round"/>
<circle cx="188.255" cy="180.415" r="2.5" transform="rotate(-70.3892 188.255 180.415)" fill="#E3F0FF"/>
<path d="M567.954 403.891C569.566 410.762 568.467 419.27 559.586 423.192C553.502 425.88 541.211 424.235 538.329 412.009C537.127 406.907 537.097 401.197 539.091 393.153C540.017 389.417 533.295 386.938 532.025 385.678" stroke="#E3F0FF" stroke-width="4" stroke-linecap="round"/>
<circle cx="520.514" cy="377.774" r="2.4605" transform="rotate(102.031 520.514 377.774)" fill="#E3F0FF"/>
<path d="M350.667 10H370.667C374.203 10 377.594 11.4048 380.095 13.9052C382.595 16.4057 384 19.7971 384 23.3333V70C384 67.3478 382.947 64.8043 381.071 62.9289C379.196 61.0536 376.652 60 374 60H350.667V10Z" stroke="#B3CDFF" stroke-width="5" stroke-linecap="round" stroke-linejoin="round"/>
<path d="M359 24H376" stroke="#B3CDFF" stroke-width="2" stroke-linecap="round"/>
<path d="M359 32H376" stroke="#B3CDFF" stroke-width="2" stroke-linecap="round"/>
<path d="M359 40H376" stroke="#B3CDFF" stroke-width="2" stroke-linecap="round"/>
<path d="M359 48H376" stroke="#B3CDFF" stroke-width="2" stroke-linecap="round"/>
<path d="M417.333 10H397.333C393.797 10 390.406 11.4048 387.905 13.9052C385.405 16.4057 384 19.7971 384 23.3333V70C384 67.3478 385.054 64.8043 386.929 62.9289C388.804 61.0536 391.348 60 394 60H417.333V10Z" stroke="#B3CDFF" stroke-width="5" stroke-linecap="round" stroke-linejoin="round"/>
<path d="M393 24H410" stroke="#B3CDFF" stroke-width="2" stroke-linecap="round"/>
<path d="M393 32H410" stroke="#B3CDFF" stroke-width="2" stroke-linecap="round"/>
<path d="M393 40H410" stroke="#B3CDFF" stroke-width="2" stroke-linecap="round"/>
<path d="M393 48H410" stroke="#B3CDFF" stroke-width="2" stroke-linecap="round"/>
<g clip-path="url(#clip0_10905_64100)">
<path d="M660.997 205.843L658.121 225.635C657.613 229.135 655.735 232.289 652.901 234.404C650.067 236.519 646.509 237.421 643.009 236.913L596.828 230.202C599.452 230.584 602.121 229.907 604.246 228.321C606.372 226.734 607.78 224.369 608.162 221.744L611.517 198.653L660.997 205.843Z" stroke="#B3CDFF" stroke-width="5" stroke-linecap="round" stroke-linejoin="round"/>
<path d="M645.944 212.077L643.5 228.9" stroke="#B3CDFF" stroke-width="2" stroke-linecap="round"/>
<path d="M638.027 210.926L635.583 227.75" stroke="#B3CDFF" stroke-width="2" stroke-linecap="round"/>
<path d="M630.111 209.776L627.666 226.599" stroke="#B3CDFF" stroke-width="2" stroke-linecap="round"/>
<path d="M622.194 208.626L619.749 225.449" stroke="#B3CDFF" stroke-width="2" stroke-linecap="round"/>
<path d="M651.411 271.817L654.287 252.025C654.795 248.525 653.893 244.967 651.778 242.133C649.663 239.299 646.509 237.421 643.009 236.913L596.828 230.203C599.452 230.584 601.818 231.992 603.404 234.118C604.99 236.243 605.667 238.912 605.286 241.537L601.93 264.627L651.411 271.817Z" stroke="#B3CDFF" stroke-width="5" stroke-linecap="round" stroke-linejoin="round"/>
<path d="M641.055 245.723L638.611 262.547" stroke="#B3CDFF" stroke-width="2" stroke-linecap="round"/>
<path d="M633.139 244.573L630.694 261.396" stroke="#B3CDFF" stroke-width="2" stroke-linecap="round"/>
<path d="M625.222 243.423L622.777 260.246" stroke="#B3CDFF" stroke-width="2" stroke-linecap="round"/>
<path d="M617.305 242.272L614.86 259.096" stroke="#B3CDFF" stroke-width="2" stroke-linecap="round"/>
</g>
<g clip-path="url(#clip1_10905_64100)">
<path d="M179.482 420.204L164.846 406.574C162.258 404.164 160.733 400.825 160.607 397.291C160.481 393.757 161.765 390.318 164.174 387.73L195.977 353.578C194.17 355.519 193.207 358.098 193.302 360.749C193.396 363.399 194.54 365.904 196.481 367.711L213.557 383.612L179.482 420.204Z" stroke="#B3CDFF" stroke-width="5" stroke-linecap="round" stroke-linejoin="round"/>
<path d="M182.924 404.279L170.483 392.694" stroke="#B3CDFF" stroke-width="2" stroke-linecap="round"/>
<path d="M188.376 398.425L175.935 386.839" stroke="#B3CDFF" stroke-width="2" stroke-linecap="round"/>
<path d="M193.828 392.57L181.387 380.985" stroke="#B3CDFF" stroke-width="2" stroke-linecap="round"/>
<path d="M199.28 386.715L186.839 375.13" stroke="#B3CDFF" stroke-width="2" stroke-linecap="round"/>
<path d="M130.694 374.771L145.33 388.401C147.918 390.811 151.357 392.094 154.891 391.968C158.425 391.842 161.765 390.318 164.174 387.73L195.977 353.578C194.17 355.519 191.665 356.662 189.015 356.757C186.364 356.851 183.785 355.889 181.844 354.081L164.768 338.18L130.694 374.771Z" stroke="#B3CDFF" stroke-width="5" stroke-linecap="round" stroke-linejoin="round"/>
<path d="M158.042 381.109L145.601 369.523" stroke="#B3CDFF" stroke-width="2" stroke-linecap="round"/>
<path d="M163.494 375.254L151.053 363.669" stroke="#B3CDFF" stroke-width="2" stroke-linecap="round"/>
<path d="M168.946 369.399L156.505 357.814" stroke="#B3CDFF" stroke-width="2" stroke-linecap="round"/>
<path d="M174.398 363.545L161.957 351.959" stroke="#B3CDFF" stroke-width="2" stroke-linecap="round"/>
</g>
<path d="M468.161 318.521L489.356 276.438L507.281 285.466C511.407 287.543 513.066 292.572 510.989 296.697L497.318 323.841C495.241 327.966 490.212 329.626 486.087 327.549L468.161 318.521Z" fill="#D7D7D7"/>
<path d="M496.844 324.781L511.461 295.758L513.424 296.747C517.55 298.824 519.209 303.853 517.132 307.978L510.039 322.062C507.961 326.187 502.933 327.847 498.808 325.77L496.844 324.781Z" fill="#EA5858"/>
<rect x="474.691" y="321.811" width="47.1188" height="4.06197" transform="rotate(-63.2686 474.691 321.811)" fill="#868686"/>
<rect x="483.398" y="326.195" width="47.1188" height="4.06197" transform="rotate(-63.2686 483.398 326.195)" fill="#868686"/>
<rect x="301.011" y="234.454" width="47.1188" height="187.809" transform="rotate(-63.2686 301.011 234.454)" fill="#FF5A5A"/>
<rect x="308.319" y="219.943" width="14.6231" height="187.809" transform="rotate(-63.2686 308.319 219.943)" fill="#F40000"/>
<path d="M300.894 234.395L268.542 196.158C265.486 193.686 267.132 187.978 272.105 189.083L322.088 192.312C325.96 201.375 323.991 204.367 314.773 206.837C318.598 214.241 317.575 217.24 308.209 219.871C311.01 228.983 310.084 232.576 300.894 234.395Z" fill="#F9E0B2"/>
<path d="M276.281 205.191L268.542 196.158C265.487 193.686 267.132 187.978 272.106 189.082L283.971 189.922C286.361 198.596 283.88 201.082 276.281 205.191Z" fill="#E3F0FF"/>
<path d="M356.304 408.075C356.304 424.706 342.778 438.207 326.069 438.207C309.36 438.207 295.835 424.706 295.835 408.075C295.835 391.445 309.36 377.944 326.069 377.944C342.778 377.944 356.304 391.445 356.304 408.075Z" stroke="black" stroke-width="7.60603"/>
<path d="M334.279 407.576C334.279 411.804 330.838 415.251 326.57 415.251C322.301 415.251 318.86 411.804 318.86 407.576C318.86 403.348 322.301 399.901 326.57 399.901C330.838 399.901 334.279 403.348 334.279 407.576Z" stroke="black" stroke-width="7.60603"/>
<path d="M327.07 375.139V397.096" stroke="#1D1D1B" stroke-width="5.70452"/>
<path d="M304.045 385.119L319.633 400.631" stroke="#1D1D1B" stroke-width="5.70452"/>
<path d="M304.045 430.033L319.633 414.521" stroke="#1D1D1B" stroke-width="5.70452"/>
<path d="M350.095 385.119L334.508 400.631" stroke="#1D1D1B" stroke-width="5.70452"/>
<path d="M350.095 430.033L334.508 414.521" stroke="#1D1D1B" stroke-width="5.70452"/>
<path d="M327.07 419.054V441.012" stroke="#1D1D1B" stroke-width="5.70452"/>
<path d="M338.083 408.075H359.106" stroke="#1D1D1B" stroke-width="5.70452"/>
<path d="M293.033 408.075H315.057" stroke="#1D1D1B" stroke-width="5.70452"/>
<path d="M468.427 408.075C468.427 424.706 454.902 438.207 438.193 438.207C421.484 438.207 407.958 424.706 407.958 408.075C407.958 391.445 421.484 377.944 438.193 377.944C454.902 377.944 468.427 391.445 468.427 408.075Z" stroke="black" stroke-width="7.60603"/>
<path d="M446.403 407.576C446.403 411.804 442.962 415.251 438.693 415.251C434.424 415.251 430.983 411.804 430.983 407.576C430.983 403.348 434.424 399.901 438.693 399.901C442.962 399.901 446.403 403.348 446.403 407.576Z" stroke="black" stroke-width="7.60603"/>
<path d="M439.194 375.139V397.096" stroke="#1D1D1B" stroke-width="5.70452"/>
<path d="M416.168 385.119L431.756 400.631" stroke="#1D1D1B" stroke-width="5.70452"/>
<path d="M416.168 430.033L431.756 414.521" stroke="#1D1D1B" stroke-width="5.70452"/>
<path d="M462.219 385.119L446.631 400.631" stroke="#1D1D1B" stroke-width="5.70452"/>
<path d="M462.219 430.033L446.631 414.521" stroke="#1D1D1B" stroke-width="5.70452"/>
<path d="M439.194 419.054V441.012" stroke="#1D1D1B" stroke-width="5.70452"/>
<path d="M450.206 408.075H471.229" stroke="#1D1D1B" stroke-width="5.70452"/>
<path d="M405.156 408.075H427.18" stroke="#1D1D1B" stroke-width="5.70452"/>
<path d="M333.421 235.043C334.332 227.702 342.856 224.102 348.794 228.549L388.215 258.071L327.377 283.769L333.421 235.043Z" fill="#F2B441"/>
<path d="M289.217 279.875C286.203 273.111 291.67 265.623 299.065 266.386L348.077 271.441L309.194 324.7L289.217 279.875Z" fill="#F2B441"/>
<path d="M281.479 335.586C275.047 331.873 275.047 322.589 281.479 318.876L324.067 294.295V360.167L281.479 335.586Z" fill="#F2B441"/>
<path d="M304.525 388.781C297.242 389.669 291.716 382.372 294.582 375.65L307.443 345.481C310.306 338.763 319.404 337.658 323.821 343.492L343.648 369.675C348.065 375.508 344.49 383.907 337.212 384.794L304.525 388.781Z" fill="#F2B441"/>
<path d="M354.258 420.327C348.403 424.723 339.987 421.168 339.097 413.922L335.1 381.378C334.208 374.121 341.533 368.606 348.279 371.456L378.577 384.254C385.323 387.104 386.424 396.178 380.559 400.581L354.258 420.327Z" fill="#F2B441"/>
<path d="M428.839 238.037C427.928 230.696 419.404 227.096 413.466 231.543L374.045 261.065L434.883 286.763L428.839 238.037Z" fill="#F2B441"/>
<path d="M473.043 282.869C476.057 276.106 470.59 268.617 463.195 269.38L414.182 274.435L453.066 327.694L473.043 282.869Z" fill="#F2B441"/>
<path d="M480.78 338.58C487.213 334.867 487.213 325.583 480.78 321.87L438.193 297.289V363.162L480.78 338.58Z" fill="#F2B441"/>
<path d="M457.735 391.775C465.018 392.664 470.543 385.366 467.678 378.644L454.817 348.475C451.954 341.757 442.856 340.652 438.438 346.486L418.612 372.669C414.195 378.502 417.769 386.901 425.048 387.789L457.735 391.775Z" fill="#F2B441"/>
<path d="M408.002 423.321C413.857 427.717 422.273 424.162 423.163 416.917L427.16 384.372C428.052 377.115 420.727 371.601 413.981 374.45L383.683 387.248C376.937 390.098 375.835 399.172 381.7 403.575L408.002 423.321Z" fill="#F2B441"/>
<ellipse cx="381.13" cy="328.728" rx="70.0771" ry="69.3662" fill="#F2B441"/>
<path d="M367.615 318.248C378.396 318.248 387.136 310.428 387.136 300.782C387.136 291.136 378.396 283.316 367.615 283.316C356.833 283.316 348.093 291.136 348.093 300.782C348.093 310.428 356.833 318.248 367.615 318.248Z" fill="white"/>
<path d="M367.114 309.266C371.538 309.266 375.123 305.691 375.123 301.281C375.123 296.871 371.538 293.296 367.114 293.296C362.691 293.296 359.106 296.871 359.106 301.281C359.106 305.691 362.691 309.266 367.114 309.266Z" fill="#1D1D1B"/>
<path d="M361.108 301.284C361.108 301.284 363.807 300.923 364.133 300.283C364.133 300.283 364.964 302.375 365.112 302.537C365.112 302.537 362.64 304.467 362.107 304.26C361.573 304.052 361.108 301.284 361.108 301.284Z" fill="white"/>
<path d="M401.652 318.248C412.434 318.248 421.174 310.428 421.174 300.782C421.174 291.136 412.434 283.316 401.652 283.316C390.871 283.316 382.131 291.136 382.131 300.782C382.131 310.428 390.871 318.248 401.652 318.248Z" fill="white"/>
<path d="M401.152 309.266C405.575 309.266 409.16 305.691 409.16 301.281C409.16 296.871 405.575 293.296 401.152 293.296C396.728 293.296 393.143 296.871 393.143 301.281C393.143 305.691 396.728 309.266 401.152 309.266Z" fill="#1D1D1B"/>
<path d="M395.145 301.284C395.145 301.284 397.844 300.923 398.171 300.283C398.171 300.283 399.001 302.375 399.15 302.537C399.15 302.537 396.678 304.467 396.144 304.26C395.61 304.052 395.145 301.284 395.145 301.284Z" fill="white"/>
<path d="M365.115 331.695C392.411 334.694 399.271 333.317 411.018 326.779C422.762 320.232 428.538 323.653 428.538 323.653C428.538 323.653 435.262 324.779 411.367 351.397C392.99 371.868 383.177 368.123 368.907 359.13C358.791 352.755 352.389 337.778 354.152 332.501C355.918 327.216 357.319 330.842 365.119 331.705L365.115 331.695Z" fill="#282828"/>
<mask id="mask0_10905_64100" style="mask-type:alpha" maskUnits="userSpaceOnUse" x="353" y="322" width="77" height="45">
<path d="M365.115 331.695C392.411 334.694 399.271 333.317 411.018 326.779C422.762 320.232 428.538 323.653 428.538 323.653C428.538 323.653 435.262 324.779 411.367 351.397C392.99 371.868 383.177 368.123 368.907 359.13C358.792 352.755 352.389 337.778 354.152 332.501C355.918 327.216 357.319 330.842 365.119 331.705L365.115 331.695Z" fill="#282828"/>
</mask>
<g mask="url(#mask0_10905_64100)">
<ellipse cx="5.99062" cy="11.5106" rx="5.99062" ry="11.5106" transform="matrix(0.345984 0.93824 0.970543 -0.240929 378.127 359.169)" fill="#EB2828"/>
<path d="M357.103 328.201C357.103 328.201 366.275 345.94 372.488 346.191C378.858 346.448 375.962 332.193 375.962 332.193L357.103 328.201Z" fill="white"/>
<path d="M369.51 320.218C369.51 320.218 378.681 337.957 384.895 338.207C391.265 338.465 398.294 328.201 398.294 328.201L369.51 320.218Z" fill="white"/>
<path d="M386.383 316.252C386.383 316.252 395.555 333.991 401.768 334.242C408.138 334.499 415.167 324.236 415.167 324.236L386.383 316.252Z" fill="white"/>
<path d="M357.103 328.201C357.103 328.201 366.275 345.94 372.488 346.191C378.858 346.448 375.962 332.193 375.962 332.193L357.103 328.201Z" stroke="white" stroke-width="1.90151"/>
<path d="M369.51 320.218C369.51 320.218 378.681 337.957 384.895 338.207C391.265 338.465 398.294 328.201 398.294 328.201L369.51 320.218Z" stroke="white" stroke-width="1.90151"/>
<path d="M386.383 316.252C386.383 316.252 395.555 333.991 401.768 334.242C408.138 334.499 415.167 324.236 415.167 324.236L386.383 316.252Z" stroke="white" stroke-width="1.90151"/>
</g>
<defs>
<clipPath id="clip0_10905_64100">
<rect width="80" height="80" fill="white" transform="translate(671.852 200.684) rotate(98.2674)"/>
</clipPath>
<clipPath id="clip1_10905_64100">
<rect width="80" height="80" fill="white" transform="translate(177.546 432.065) rotate(-137.04)"/>
</clipPath>
</defs>
</svg>
