<svg xmlns="http://www.w3.org/2000/svg" width="360" height="266" viewBox="0 0 360 268" fill="none">



  <path d="M281.505 50.4151C285.859 48.939 291.444 49.1187 294.544 54.631C296.669 58.4075 296.373 66.4805 288.625 69.1152C285.393 70.2145 281.692 70.5916 276.351 69.803C273.871 69.4368 272.685 73.9512 271.948 74.8531" stroke="#E3F0FF" stroke-width="2.37501" stroke-linecap="round"/>
  <circle cx="269.149" cy="80.1661" r="1.35616" transform="rotate(8.52003 269.149 80.1661)" fill="#E3F0FF"/>
  <path d="M63.0947 115.486C105.713 114.688 57.4898 188.282 76.8825 188.282C91.4567 188.282 81.2636 179.392 108.315 178.039C132.75 176.817 201.577 161.11 165.22 101.297C146.814 71.0161 84.1729 77.5476 100.17 115.486M116.072 95.6569C86.432 95.6569 81.8809 172.217 100.17 178.039C203.479 210.928 140.119 95.6569 116.072 95.6569Z" stroke="#E3F0FF" stroke-width="2.37501" stroke-linecap="round"/>
  <path d="M143.846 168.817C194.154 186.892 164.431 134.683 157.424 104.938C136.424 15.7983 328.521 156.162 248.995 182.206C233.888 187.153 193.741 164.752 198.48 145.647C203.219 126.542 248.995 131.438 264.087 160.457M223.076 191.786C189.699 199.857 173.54 130.772 184.637 114.929C235.5 42.3074 318.057 168.818 223.076 191.786Z" stroke="#E3F0FF" stroke-width="2.37501" stroke-linecap="round"/>
  <path d="M26.0816 93.9841C25.4129 88.9963 26.7818 83.0351 33.3553 80.8657C37.859 79.3795 46.4679 81.3971 47.6666 90.2732C48.1668 93.9768 47.7926 98.0308 45.8211 103.602C44.9055 106.189 49.5046 108.413 50.3183 109.395" stroke="#E3F0FF" stroke-width="2.37501" stroke-linecap="round"/>
  <circle cx="56.1216" cy="113.12" r="1.48438" transform="rotate(-70.3892 56.1216 113.12)" fill="#E3F0FF"/>
  <path d="M281.568 245.811C282.525 249.891 281.872 254.942 276.599 257.271C272.987 258.867 265.689 257.891 263.978 250.631C263.264 247.602 263.247 244.212 264.43 239.435C264.98 237.217 260.989 235.745 260.235 234.997" stroke="#E3F0FF" stroke-width="2.37501" stroke-linecap="round"/>
  <circle cx="253.4" cy="230.303" r="1.46093" transform="rotate(102.031 253.4 230.303)" fill="#E3F0FF"/>
  <path d="M152.553 11.9375H164.428C166.527 11.9375 168.541 12.7716 170.026 14.2562C171.51 15.7409 172.344 17.7546 172.344 19.8542V47.5626C172.344 45.9879 171.719 44.4777 170.605 43.3642C169.492 42.2507 167.982 41.6251 166.407 41.6251H152.553V11.9375Z" stroke="#B3CDFF" stroke-width="2.96876" stroke-linecap="round" stroke-linejoin="round"/>
  <path d="M157.501 20.25H167.595" stroke="#B3CDFF" stroke-width="1.1875" stroke-linecap="round"/>
  <path d="M157.501 25H167.595" stroke="#B3CDFF" stroke-width="1.1875" stroke-linecap="round"/>
  <path d="M157.501 29.75H167.595" stroke="#B3CDFF" stroke-width="1.1875" stroke-linecap="round"/>
  <path d="M157.501 34.5H167.595" stroke="#B3CDFF" stroke-width="1.1875" stroke-linecap="round"/>
  <path d="M192.136 11.9375H180.261C178.162 11.9375 176.148 12.7716 174.663 14.2562C173.179 15.7409 172.345 17.7546 172.345 19.8542V47.5626C172.345 45.9879 172.97 44.4777 174.084 43.3642C175.197 42.2507 176.708 41.6251 178.282 41.6251H192.136V11.9375Z" stroke="#B3CDFF" stroke-width="2.96876" stroke-linecap="round" stroke-linejoin="round"/>
  <path d="M177.689 20.25H187.783" stroke="#B3CDFF" stroke-width="1.1875" stroke-linecap="round"/>
  <path d="M177.689 25H187.783" stroke="#B3CDFF" stroke-width="1.1875" stroke-linecap="round"/>
  <path d="M177.689 29.75H187.783" stroke="#B3CDFF" stroke-width="1.1875" stroke-linecap="round"/>
  <path d="M177.689 34.5H187.783" stroke="#B3CDFF" stroke-width="1.1875" stroke-linecap="round"/>
  <g clip-path="url(#clip0_10905_64101)">
    <path d="M336.812 128.22L335.104 139.971C334.802 142.049 333.687 143.922 332.004 145.178C330.322 146.433 328.209 146.969 326.131 146.667L298.711 142.683C300.269 142.91 301.854 142.508 303.116 141.566C304.378 140.624 305.214 139.219 305.44 137.661L307.432 123.951L336.812 128.22Z" stroke="#B3CDFF" stroke-width="2.96876" stroke-linecap="round" stroke-linejoin="round"/>
    <path d="M327.875 131.921L326.423 141.91" stroke="#B3CDFF" stroke-width="1.1875" stroke-linecap="round"/>
    <path d="M323.174 131.238L321.722 141.227" stroke="#B3CDFF" stroke-width="1.1875" stroke-linecap="round"/>
    <path d="M318.473 130.555L317.022 140.544" stroke="#B3CDFF" stroke-width="1.1875" stroke-linecap="round"/>
    <path d="M313.772 129.871L312.321 139.86" stroke="#B3CDFF" stroke-width="1.1875" stroke-linecap="round"/>
    <path d="M331.119 167.392L332.827 155.64C333.129 153.562 332.593 151.45 331.337 149.767C330.082 148.084 328.209 146.969 326.131 146.667L298.71 142.683C300.269 142.909 301.673 143.746 302.615 145.008C303.557 146.27 303.959 147.854 303.732 149.413L301.74 163.123L331.119 167.392Z" stroke="#B3CDFF" stroke-width="2.96876" stroke-linecap="round" stroke-linejoin="round"/>
    <path d="M324.971 151.899L323.52 161.888" stroke="#B3CDFF" stroke-width="1.1875" stroke-linecap="round"/>
    <path d="M320.271 151.216L318.819 161.205" stroke="#B3CDFF" stroke-width="1.1875" stroke-linecap="round"/>
    <path d="M315.57 150.533L314.118 160.522" stroke="#B3CDFF" stroke-width="1.1875" stroke-linecap="round"/>
    <path d="M310.87 149.85L309.418 159.838" stroke="#B3CDFF" stroke-width="1.1875" stroke-linecap="round"/>
  </g>
  <g clip-path="url(#clip1_10905_64101)">
    <path d="M50.9111 255.496L42.2206 247.403C40.6841 245.972 39.7789 243.99 39.7041 241.892C39.6294 239.793 40.3913 237.751 41.8221 236.215L60.7051 215.937C59.632 217.089 59.0606 218.621 59.1166 220.194C59.1727 221.768 59.8516 223.255 61.004 224.328L71.1429 233.77L50.9111 255.496Z" stroke="#B3CDFF" stroke-width="2.96876" stroke-linecap="round" stroke-linejoin="round"/>
    <path d="M52.9556 246.041L45.5687 239.162" stroke="#B3CDFF" stroke-width="1.1875" stroke-linecap="round"/>
    <path d="M56.1919 242.565L48.805 235.687" stroke="#B3CDFF" stroke-width="1.1875" stroke-linecap="round"/>
    <path d="M59.4297 239.09L52.0428 232.211" stroke="#B3CDFF" stroke-width="1.1875" stroke-linecap="round"/>
    <path d="M62.6665 235.613L55.2796 228.734" stroke="#B3CDFF" stroke-width="1.1875" stroke-linecap="round"/>
    <path d="M21.9436 228.522L30.6341 236.615C32.1707 238.046 34.2127 238.807 36.311 238.733C38.4093 238.658 40.392 237.753 41.8229 236.216L60.7059 215.938C59.6327 217.091 58.1457 217.77 56.572 217.826C54.9982 217.882 53.4667 217.31 52.3143 216.237L42.1754 206.796L21.9436 228.522Z" stroke="#B3CDFF" stroke-width="2.96876" stroke-linecap="round" stroke-linejoin="round"/>
    <path d="M38.1816 232.284L30.7947 225.405" stroke="#B3CDFF" stroke-width="1.1875" stroke-linecap="round"/>
    <path d="M41.4189 228.808L34.032 221.929" stroke="#B3CDFF" stroke-width="1.1875" stroke-linecap="round"/>
    <path d="M44.6553 225.332L37.2684 218.453" stroke="#B3CDFF" stroke-width="1.1875" stroke-linecap="round"/>
    <path d="M47.8931 221.855L40.5062 214.977" stroke="#B3CDFF" stroke-width="1.1875" stroke-linecap="round"/>
  </g>
  <path d="M224.769 195.123L237.353 170.136L247.997 175.497C250.446 176.73 251.432 179.716 250.198 182.165L242.081 198.282C240.847 200.731 237.862 201.717 235.412 200.483L224.769 195.123Z" fill="#D7D7D7"/>
  <path d="M241.8 198.841L250.479 181.608L251.644 182.196C254.093 183.429 255.079 186.415 253.845 188.864L249.634 197.226C248.4 199.676 245.415 200.661 242.965 199.428L241.8 198.841Z" fill="#EA5858"/>
  <rect x="228.646" y="197.077" width="27.9769" height="2.4118" transform="rotate(-63.2686 228.646 197.077)" fill="#868686"/>
  <rect x="233.816" y="199.68" width="27.9769" height="2.4118" transform="rotate(-63.2686 233.816 199.68)" fill="#868686"/>
  <rect x="125.523" y="145.209" width="27.9769" height="111.512" transform="rotate(-63.2686 125.523 145.209)" fill="#FF5A5A"/>
  <rect x="129.863" y="136.593" width="8.68248" height="111.512" transform="rotate(-63.2686 129.863 136.593)" fill="#F40000"/>
  <path d="M125.453 145.175L106.244 122.471C104.43 121.003 105.407 117.614 108.36 118.27L138.038 120.188C140.336 125.569 139.167 127.345 133.694 128.812C135.965 133.208 135.358 134.989 129.797 136.551C131.46 141.961 130.91 144.094 125.453 145.175Z" fill="#F9E0B2"/>
  <path d="M110.84 127.834L106.245 122.471C104.431 121.003 105.408 117.614 108.361 118.27L115.406 118.768C116.825 123.918 115.352 125.394 110.84 127.834Z" fill="#E3F0FF"/>
  <path d="M158.354 248.295C158.354 258.169 150.324 266.186 140.403 266.186C130.482 266.186 122.451 258.169 122.451 248.295C122.451 238.421 130.482 230.405 140.403 230.405C150.324 230.405 158.354 238.421 158.354 248.295Z" stroke="black" stroke-width="4.51609"/>
  <path d="M145.278 248C145.278 250.51 143.235 252.557 140.7 252.557C138.165 252.557 136.122 250.51 136.122 248C136.122 245.489 138.165 243.443 140.7 243.443C143.235 243.443 145.278 245.489 145.278 248Z" stroke="black" stroke-width="4.51609"/>
  <path d="M140.998 228.738V241.776" stroke="#1D1D1B" stroke-width="3.38707"/>
  <path d="M127.326 234.665L136.581 243.875" stroke="#1D1D1B" stroke-width="3.38707"/>
  <path d="M127.326 261.332L136.581 252.122" stroke="#1D1D1B" stroke-width="3.38707"/>
  <path d="M154.668 234.665L145.413 243.875" stroke="#1D1D1B" stroke-width="3.38707"/>
  <path d="M154.668 261.332L145.413 252.122" stroke="#1D1D1B" stroke-width="3.38707"/>
  <path d="M140.998 254.814V267.852" stroke="#1D1D1B" stroke-width="3.38707"/>
  <path d="M147.536 248.295H160.018" stroke="#1D1D1B" stroke-width="3.38707"/>
  <path d="M120.788 248.295H133.865" stroke="#1D1D1B" stroke-width="3.38707"/>
  <path d="M224.928 248.295C224.928 258.169 216.897 266.186 206.976 266.186C197.055 266.186 189.024 258.169 189.024 248.295C189.024 238.421 197.055 230.405 206.976 230.405C216.897 230.405 224.928 238.421 224.928 248.295Z" stroke="black" stroke-width="4.51609"/>
  <path d="M211.851 248C211.851 250.51 209.808 252.557 207.273 252.557C204.739 252.557 202.696 250.51 202.696 248C202.696 245.489 204.739 243.443 207.273 243.443C209.808 243.443 211.851 245.489 211.851 248Z" stroke="black" stroke-width="4.51609"/>
  <path d="M207.571 228.738V241.776" stroke="#1D1D1B" stroke-width="3.38707"/>
  <path d="M193.899 234.665L203.155 243.875" stroke="#1D1D1B" stroke-width="3.38707"/>
  <path d="M193.899 261.332L203.155 252.122" stroke="#1D1D1B" stroke-width="3.38707"/>
  <path d="M221.242 234.665L211.986 243.875" stroke="#1D1D1B" stroke-width="3.38707"/>
  <path d="M221.242 261.332L211.986 252.122" stroke="#1D1D1B" stroke-width="3.38707"/>
  <path d="M207.571 254.814V267.852" stroke="#1D1D1B" stroke-width="3.38707"/>
  <path d="M214.109 248.295H226.591" stroke="#1D1D1B" stroke-width="3.38707"/>
  <path d="M187.361 248.295H200.438" stroke="#1D1D1B" stroke-width="3.38707"/>
  <path d="M144.768 145.557C145.309 141.198 150.37 139.06 153.896 141.701L177.302 159.23L141.179 174.488L144.768 145.557Z" fill="#F2B441"/>
  <path d="M118.522 172.176C116.732 168.16 119.978 163.714 124.369 164.167L153.47 167.168L130.383 198.791L118.522 172.176Z" fill="#F2B441"/>
  <path d="M113.927 205.255C110.108 203.051 110.108 197.538 113.927 195.334L139.214 180.738V219.851L113.927 205.255Z" fill="#F2B441"/>
  <path d="M127.611 236.839C123.287 237.367 120.006 233.034 121.707 229.043L129.343 211.13C131.043 207.141 136.445 206.485 139.068 209.949L150.84 225.495C153.463 228.958 151.34 233.945 147.019 234.472L127.611 236.839Z" fill="#F2B441"/>
  <path d="M157.14 255.571C153.663 258.181 148.666 256.07 148.138 251.768L145.765 232.445C145.235 228.136 149.584 224.861 153.59 226.553L171.579 234.152C175.584 235.844 176.239 241.232 172.756 243.846L157.14 255.571Z" fill="#F2B441"/>
  <path d="M201.421 147.334C200.881 142.976 195.82 140.838 192.294 143.478L168.888 161.007L205.01 176.265L201.421 147.334Z" fill="#F2B441"/>
  <path d="M227.668 173.953C229.457 169.937 226.211 165.491 221.821 165.944L192.72 168.946L215.807 200.568L227.668 173.953Z" fill="#F2B441"/>
  <path d="M232.262 207.033C236.081 204.828 236.081 199.316 232.262 197.111L206.975 182.516V221.628L232.262 207.033Z" fill="#F2B441"/>
  <path d="M218.579 238.617C222.903 239.144 226.184 234.811 224.482 230.82L216.846 212.907C215.146 208.918 209.744 208.262 207.121 211.726L195.349 227.272C192.727 230.736 194.849 235.722 199.171 236.249L218.579 238.617Z" fill="#F2B441"/>
  <path d="M189.049 257.348C192.526 259.958 197.523 257.847 198.052 253.545L200.425 234.222C200.954 229.913 196.605 226.639 192.6 228.331L174.61 235.93C170.605 237.621 169.951 243.009 173.433 245.624L189.049 257.348Z" fill="#F2B441"/>
  <ellipse cx="173.095" cy="201.182" rx="41.6084" ry="41.1863" fill="#F2B441"/>
  <path d="M165.07 194.96C171.472 194.96 176.661 190.317 176.661 184.589C176.661 178.862 171.472 174.219 165.07 174.219C158.669 174.219 153.479 178.862 153.479 184.589C153.479 190.317 158.669 194.96 165.07 194.96Z" fill="white"/>
  <path d="M164.773 189.627C167.399 189.627 169.528 187.505 169.528 184.886C169.528 182.268 167.399 180.146 164.773 180.146C162.147 180.146 160.018 182.268 160.018 184.886C160.018 187.505 162.147 189.627 164.773 189.627Z" fill="#1D1D1B"/>
  <path d="M161.207 184.887C161.207 184.887 162.809 184.673 163.003 184.293C163.003 184.293 163.496 185.535 163.584 185.632C163.584 185.632 162.116 186.777 161.799 186.654C161.482 186.531 161.207 184.887 161.207 184.887Z" fill="white"/>
  <path d="M185.28 194.96C191.682 194.96 196.871 190.317 196.871 184.589C196.871 178.862 191.682 174.219 185.28 174.219C178.879 174.219 173.689 178.862 173.689 184.589C173.689 190.317 178.879 194.96 185.28 194.96Z" fill="white"/>
  <path d="M184.983 189.627C187.609 189.627 189.738 187.505 189.738 184.886C189.738 182.268 187.609 180.146 184.983 180.146C182.357 180.146 180.228 182.268 180.228 184.886C180.228 187.505 182.357 189.627 184.983 189.627Z" fill="#1D1D1B"/>
  <path d="M181.417 184.887C181.417 184.887 183.019 184.673 183.213 184.293C183.213 184.293 183.706 185.535 183.794 185.632C183.794 185.632 182.326 186.777 182.009 186.654C181.692 186.531 181.417 184.887 181.417 184.887Z" fill="white"/>
  <path d="M163.586 202.945C179.793 204.726 183.866 203.908 190.841 200.026C197.814 196.139 201.244 198.17 201.244 198.17C201.244 198.17 205.236 198.839 191.048 214.643C180.137 226.798 174.311 224.574 165.838 219.235C159.832 215.449 156.03 206.557 157.077 203.423C158.125 200.285 158.957 202.438 163.589 202.951L163.586 202.945Z" fill="#282828"/>
  <mask id="mask0_10905_64101" style="mask-type:alpha" maskUnits="userSpaceOnUse" x="156" y="197" width="46" height="27">
    <path d="M163.586 202.945C179.793 204.726 183.866 203.908 190.841 200.026C197.814 196.139 201.244 198.17 201.244 198.17C201.244 198.17 205.236 198.839 191.048 214.643C180.137 226.798 174.311 224.574 165.838 219.235C159.832 215.449 156.03 206.557 157.077 203.423C158.125 200.285 158.957 202.438 163.589 202.951L163.586 202.945Z" fill="#282828"/>
  </mask>
  <g mask="url(#mask0_10905_64101)">
    <ellipse cx="3.55694" cy="6.83446" rx="3.55694" ry="6.83446" transform="matrix(0.345984 0.93824 0.970543 -0.240929 171.312 219.257)" fill="#EB2828"/>
    <path d="M158.83 200.87C158.83 200.87 164.275 211.403 167.964 211.552C171.747 211.704 170.027 203.24 170.027 203.24L158.83 200.87Z" fill="white"/>
    <path d="M166.196 196.13C166.196 196.13 171.642 206.663 175.331 206.811C179.113 206.964 183.287 200.87 183.287 200.87L166.196 196.13Z" fill="white"/>
    <path d="M176.215 193.775C176.215 193.775 181.66 204.308 185.349 204.457C189.132 204.609 193.305 198.516 193.305 198.516L176.215 193.775Z" fill="white"/>
    <path d="M158.83 200.87C158.83 200.87 164.275 211.403 167.964 211.552C171.747 211.704 170.027 203.24 170.027 203.24L158.83 200.87Z" stroke="white" stroke-width="1.12902"/>
    <path d="M166.196 196.13C166.196 196.13 171.642 206.663 175.331 206.811C179.113 206.964 183.287 200.87 183.287 200.87L166.196 196.13Z" stroke="white" stroke-width="1.12902"/>
    <path d="M176.215 193.775C176.215 193.775 181.66 204.308 185.349 204.457C189.132 204.609 193.305 198.516 193.305 198.516L176.215 193.775Z" stroke="white" stroke-width="1.12902"/>
  </g>
  <defs>
    <clipPath id="clip0_10905_64101">
      <rect width="47.5002" height="47.5002" fill="white" transform="translate(343.257 125.156) rotate(98.2674)"/>
    </clipPath>
    <clipPath id="clip1_10905_64101">
      <rect width="47.5002" height="47.5002" fill="white" transform="translate(49.7617 262.54) rotate(-137.04)"/>
    </clipPath>
  </defs>
</svg>