<svg width="360" height="633" viewBox="0 0 360 633" fill="none" xmlns="http://www.w3.org/2000/svg">
<path d="M0 409.555H230.123L221.953 342.77C140.391 339.087 106.172 347.749 95.0977 354.246C90.1088 357.173 84.9023 360.958 84.9023 360.958C84.9023 360.958 72.1785 334.514 60.293 335.634C49.1804 336.682 36.8196 356.253 36.8196 356.253C36.8196 356.253 26.3538 343.022 16.7706 345.164C10.0026 346.677 0 362.627 0 362.627V409.555Z" fill="#455FC8"/>
<path d="M230.123 409.555L221.953 342.77C237.656 348.92 255.703 351.977 278.438 364.605C278.438 364.605 290.885 332.742 300.841 334.76C308.953 336.405 315.468 351.977 315.468 351.977C315.468 351.977 317.996 345.175 321.43 344.384C325.709 343.399 330.374 351.977 330.374 351.977C330.374 351.977 336.806 344.767 343.986 342.77C353.026 340.255 360 362.627 360 362.627V409.555H230.123Z" fill="#455FC8"/>
<path d="M0 375.291V599.766H360V370.033C356.719 359.937 350.859 333.645 329.766 367.719C327.422 361.409 320.859 350.892 315.703 367.719C230.859 245.935 142.5 190.539 37.5 369.822C18 333.645 4.375 358.394 0 375.291Z" fill="#637DE6"/>
<path d="M282.247 44.4151C286.602 42.939 292.187 43.1187 295.287 48.631C297.411 52.4075 297.115 60.4805 289.368 63.1152C286.135 64.2145 282.435 64.5916 277.094 63.803C274.614 63.4368 273.427 67.9512 272.69 68.8531" stroke="#E3F0FF" stroke-width="2.37501" stroke-linecap="round"/>
<circle cx="269.892" cy="74.1661" r="1.35616" transform="rotate(8.52003 269.892 74.1661)" fill="#E3F0FF"/>
<path d="M63.8369 109.485C106.455 108.687 58.232 182.281 77.6247 182.281C92.1989 182.281 82.0058 173.391 109.057 172.038C133.492 170.816 202.319 155.109 165.962 95.2965C147.556 65.0151 84.9151 71.5466 100.912 109.485M116.814 89.6559C87.1742 89.6559 82.6231 166.216 100.912 172.038C204.221 204.927 140.861 89.6559 116.814 89.6559Z" stroke="#E3F0FF" stroke-width="2.37501" stroke-linecap="round"/>
<path d="M144.588 162.816C194.897 180.891 165.173 128.682 158.166 98.9372C137.166 9.79728 329.263 150.161 249.737 176.205C234.631 181.152 194.483 158.751 199.222 139.646C203.961 120.541 249.737 125.437 264.829 154.456M223.818 185.785C190.441 193.856 174.282 124.771 185.379 108.928C236.242 36.3064 318.799 162.817 223.818 185.785Z" stroke="#E3F0FF" stroke-width="2.37501" stroke-linecap="round"/>
<path d="M26.8237 87.9841C26.1551 82.9963 27.524 77.0351 34.0975 74.8657C38.6012 73.3795 47.2101 75.3971 48.4088 84.2732C48.9089 87.9768 48.5348 92.0308 46.5633 97.6016C45.6477 100.189 50.2468 102.413 51.0605 103.395" stroke="#E3F0FF" stroke-width="2.37501" stroke-linecap="round"/>
<circle cx="56.8638" cy="107.12" r="1.48438" transform="rotate(-70.3892 56.8638 107.12)" fill="#E3F0FF"/>
<path d="M282.31 239.811C283.268 243.891 282.615 248.942 277.342 251.271C273.729 252.867 266.431 251.891 264.721 244.631C264.007 241.602 263.989 238.212 265.173 233.435C265.723 231.217 261.731 229.745 260.978 228.997" stroke="#E3F0FF" stroke-width="2.37501" stroke-linecap="round"/>
<circle cx="254.143" cy="224.303" r="1.46093" transform="rotate(102.031 254.143 224.303)" fill="#E3F0FF"/>
<path d="M153.295 5.9375H165.17C167.27 5.9375 169.284 6.77158 170.768 8.25625C172.253 9.74091 173.087 11.7546 173.087 13.8542V41.5626C173.087 39.9879 172.462 38.4777 171.348 37.3642C170.235 36.2507 168.724 35.6251 167.15 35.6251H153.295V5.9375Z" stroke="#B3CDFF" stroke-width="2.96876" stroke-linecap="round" stroke-linejoin="round"/>
<path d="M158.244 14.25H168.337" stroke="#B3CDFF" stroke-width="1.1875" stroke-linecap="round"/>
<path d="M158.244 19H168.337" stroke="#B3CDFF" stroke-width="1.1875" stroke-linecap="round"/>
<path d="M158.244 23.75H168.337" stroke="#B3CDFF" stroke-width="1.1875" stroke-linecap="round"/>
<path d="M158.244 28.5H168.337" stroke="#B3CDFF" stroke-width="1.1875" stroke-linecap="round"/>
<path d="M192.879 5.9375H181.004C178.904 5.9375 176.891 6.77158 175.406 8.25625C173.921 9.74091 173.087 11.7546 173.087 13.8542V41.5626C173.087 39.9879 173.713 38.4777 174.826 37.3642C175.94 36.2507 177.45 35.6251 179.025 35.6251H192.879V5.9375Z" stroke="#B3CDFF" stroke-width="2.96876" stroke-linecap="round" stroke-linejoin="round"/>
<path d="M178.432 14.25H188.525" stroke="#B3CDFF" stroke-width="1.1875" stroke-linecap="round"/>
<path d="M178.432 19H188.525" stroke="#B3CDFF" stroke-width="1.1875" stroke-linecap="round"/>
<path d="M178.432 23.75H188.525" stroke="#B3CDFF" stroke-width="1.1875" stroke-linecap="round"/>
<path d="M178.432 28.5H188.525" stroke="#B3CDFF" stroke-width="1.1875" stroke-linecap="round"/>
<g clip-path="url(#clip0_10905_64101)">
<path d="M337.554 122.22L335.847 133.971C335.545 136.049 334.43 137.922 332.747 139.178C331.064 140.433 328.952 140.969 326.874 140.667L299.453 136.683C301.012 136.91 302.596 136.508 303.858 135.566C305.12 134.624 305.957 133.219 306.183 131.661L308.175 117.951L337.554 122.22Z" stroke="#B3CDFF" stroke-width="2.96876" stroke-linecap="round" stroke-linejoin="round"/>
<path d="M328.617 125.921L327.166 135.91" stroke="#B3CDFF" stroke-width="1.1875" stroke-linecap="round"/>
<path d="M323.917 125.238L322.465 135.227" stroke="#B3CDFF" stroke-width="1.1875" stroke-linecap="round"/>
<path d="M319.216 124.555L317.764 134.544" stroke="#B3CDFF" stroke-width="1.1875" stroke-linecap="round"/>
<path d="M314.515 123.871L313.064 133.86" stroke="#B3CDFF" stroke-width="1.1875" stroke-linecap="round"/>
<path d="M331.862 161.392L333.57 149.64C333.872 147.562 333.336 145.45 332.08 143.767C330.824 142.084 328.951 140.969 326.874 140.667L299.453 136.683C301.011 136.909 302.416 137.746 303.358 139.008C304.3 140.27 304.702 141.854 304.475 143.413L302.483 157.123L331.862 161.392Z" stroke="#B3CDFF" stroke-width="2.96876" stroke-linecap="round" stroke-linejoin="round"/>
<path d="M325.714 145.899L324.262 155.888" stroke="#B3CDFF" stroke-width="1.1875" stroke-linecap="round"/>
<path d="M321.013 145.216L319.562 155.205" stroke="#B3CDFF" stroke-width="1.1875" stroke-linecap="round"/>
<path d="M316.312 144.533L314.861 154.522" stroke="#B3CDFF" stroke-width="1.1875" stroke-linecap="round"/>
<path d="M311.612 143.85L310.161 153.838" stroke="#B3CDFF" stroke-width="1.1875" stroke-linecap="round"/>
</g>
<g clip-path="url(#clip1_10905_64101)">
<path d="M51.6538 249.496L42.9633 241.403C41.4268 239.972 40.5215 237.99 40.4468 235.892C40.3721 233.793 41.1339 231.751 42.5648 230.215L61.4478 209.937C60.3746 211.089 59.8032 212.621 59.8593 214.194C59.9153 215.768 60.5943 217.255 61.7467 218.328L71.8856 227.77L51.6538 249.496Z" stroke="#B3CDFF" stroke-width="2.96876" stroke-linecap="round" stroke-linejoin="round"/>
<path d="M53.6982 240.041L46.3113 233.162" stroke="#B3CDFF" stroke-width="1.1875" stroke-linecap="round"/>
<path d="M56.9346 236.565L49.5477 229.687" stroke="#B3CDFF" stroke-width="1.1875" stroke-linecap="round"/>
<path d="M60.1724 233.09L52.7855 226.211" stroke="#B3CDFF" stroke-width="1.1875" stroke-linecap="round"/>
<path d="M63.4092 229.613L56.0223 222.734" stroke="#B3CDFF" stroke-width="1.1875" stroke-linecap="round"/>
<path d="M22.6863 222.522L31.3768 230.615C32.9133 232.046 34.9554 232.807 37.0537 232.733C39.152 232.658 41.1347 231.753 42.5656 230.216L61.4486 209.938C60.3754 211.091 58.8884 211.77 57.3147 211.826C55.7409 211.882 54.2094 211.31 53.057 210.237L42.9181 200.796L22.6863 222.522Z" stroke="#B3CDFF" stroke-width="2.96876" stroke-linecap="round" stroke-linejoin="round"/>
<path d="M38.9243 226.284L31.5374 219.405" stroke="#B3CDFF" stroke-width="1.1875" stroke-linecap="round"/>
<path d="M42.1616 222.808L34.7747 215.929" stroke="#B3CDFF" stroke-width="1.1875" stroke-linecap="round"/>
<path d="M45.3979 219.332L38.011 212.453" stroke="#B3CDFF" stroke-width="1.1875" stroke-linecap="round"/>
<path d="M48.6357 215.855L41.2488 208.977" stroke="#B3CDFF" stroke-width="1.1875" stroke-linecap="round"/>
</g>
<path d="M225.512 189.124L238.096 164.137L248.739 169.497C251.189 170.731 252.174 173.717 250.941 176.166L242.824 192.283C241.59 194.732 238.604 195.718 236.155 194.484L225.512 189.124Z" fill="#D7D7D7"/>
<path d="M242.542 192.842L251.221 175.609L252.387 176.196C254.836 177.43 255.822 180.416 254.588 182.865L250.377 191.227C249.143 193.677 246.157 194.662 243.708 193.429L242.542 192.842Z" fill="#EA5858"/>
<rect x="229.389" y="191.078" width="27.9769" height="2.4118" transform="rotate(-63.2686 229.389 191.078)" fill="#868686"/>
<rect x="234.559" y="193.681" width="27.9769" height="2.4118" transform="rotate(-63.2686 234.559 193.681)" fill="#868686"/>
<rect x="126.266" y="139.21" width="27.9769" height="111.512" transform="rotate(-63.2686 126.266 139.21)" fill="#FF5A5A"/>
<rect x="130.605" y="130.594" width="8.68248" height="111.512" transform="rotate(-63.2686 130.605 130.594)" fill="#F40000"/>
<path d="M126.196 139.176L106.987 116.472C105.173 115.004 106.15 111.615 109.103 112.271L138.78 114.189C141.079 119.569 139.91 121.346 134.437 122.813C136.708 127.209 136.101 128.989 130.539 130.552C132.202 135.962 131.653 138.095 126.196 139.176Z" fill="#F9E0B2"/>
<path d="M111.582 121.835L106.987 116.472C105.173 115.004 106.15 111.615 109.103 112.271L116.148 112.769C117.567 117.919 116.094 119.395 111.582 121.835Z" fill="#E3F0FF"/>
<path d="M159.097 242.296C159.097 252.17 151.066 260.187 141.145 260.187C131.224 260.187 123.193 252.17 123.193 242.296C123.193 232.422 131.224 224.406 141.145 224.406C151.066 224.406 159.097 232.422 159.097 242.296Z" stroke="black" stroke-width="4.51609"/>
<path d="M146.02 242.001C146.02 244.511 143.977 246.558 141.442 246.558C138.908 246.558 136.864 244.511 136.864 242.001C136.864 239.49 138.908 237.444 141.442 237.444C143.977 237.444 146.02 239.49 146.02 242.001Z" stroke="black" stroke-width="4.51609"/>
<path d="M141.74 222.739V235.777" stroke="#1D1D1B" stroke-width="3.38707"/>
<path d="M128.068 228.666L137.324 237.876" stroke="#1D1D1B" stroke-width="3.38707"/>
<path d="M128.068 255.333L137.324 246.123" stroke="#1D1D1B" stroke-width="3.38707"/>
<path d="M155.411 228.666L146.155 237.876" stroke="#1D1D1B" stroke-width="3.38707"/>
<path d="M155.411 255.333L146.155 246.123" stroke="#1D1D1B" stroke-width="3.38707"/>
<path d="M141.74 248.815V261.853" stroke="#1D1D1B" stroke-width="3.38707"/>
<path d="M148.278 242.296H160.76" stroke="#1D1D1B" stroke-width="3.38707"/>
<path d="M121.53 242.296H134.607" stroke="#1D1D1B" stroke-width="3.38707"/>
<path d="M225.67 242.296C225.67 252.17 217.639 260.187 207.718 260.187C197.797 260.187 189.766 252.17 189.766 242.296C189.766 232.422 197.797 224.406 207.718 224.406C217.639 224.406 225.67 232.422 225.67 242.296Z" stroke="black" stroke-width="4.51609"/>
<path d="M212.593 242.001C212.593 244.511 210.55 246.558 208.015 246.558C205.481 246.558 203.438 244.511 203.438 242.001C203.438 239.49 205.481 237.444 208.015 237.444C210.55 237.444 212.593 239.49 212.593 242.001Z" stroke="black" stroke-width="4.51609"/>
<path d="M208.313 222.739V235.777" stroke="#1D1D1B" stroke-width="3.38707"/>
<path d="M194.642 228.666L203.897 237.876" stroke="#1D1D1B" stroke-width="3.38707"/>
<path d="M194.642 255.333L203.897 246.123" stroke="#1D1D1B" stroke-width="3.38707"/>
<path d="M221.984 228.666L212.729 237.876" stroke="#1D1D1B" stroke-width="3.38707"/>
<path d="M221.984 255.333L212.729 246.123" stroke="#1D1D1B" stroke-width="3.38707"/>
<path d="M208.313 248.815V261.853" stroke="#1D1D1B" stroke-width="3.38707"/>
<path d="M214.851 242.296H227.334" stroke="#1D1D1B" stroke-width="3.38707"/>
<path d="M188.103 242.296H201.18" stroke="#1D1D1B" stroke-width="3.38707"/>
<path d="M145.51 139.558C146.051 135.199 151.112 133.061 154.638 135.702L178.044 153.23L141.922 168.489L145.51 139.558Z" fill="#F2B441"/>
<path d="M119.264 166.177C117.474 162.161 120.72 157.715 125.111 158.168L154.212 161.169L131.125 192.792L119.264 166.177Z" fill="#F2B441"/>
<path d="M114.669 199.256C110.85 197.052 110.85 191.539 114.669 189.335L139.956 174.739V213.852L114.669 199.256Z" fill="#F2B441"/>
<path d="M128.353 230.84C124.029 231.368 120.748 227.035 122.449 223.044L130.085 205.131C131.786 201.142 137.188 200.486 139.81 203.95L151.582 219.496C154.205 222.959 152.083 227.946 147.761 228.473L128.353 230.84Z" fill="#F2B441"/>
<path d="M157.882 249.571C154.405 252.182 149.408 250.071 148.88 245.769L146.507 226.446C145.977 222.137 150.327 218.862 154.332 220.554L172.321 228.153C176.327 229.845 176.981 235.233 173.499 237.847L157.882 249.571Z" fill="#F2B441"/>
<path d="M202.164 141.335C201.623 136.977 196.562 134.839 193.036 137.479L169.63 155.008L205.752 170.266L202.164 141.335Z" fill="#F2B441"/>
<path d="M228.41 167.954C230.2 163.938 226.954 159.492 222.563 159.945L193.462 162.947L216.549 194.569L228.41 167.954Z" fill="#F2B441"/>
<path d="M233.004 201.034C236.823 198.829 236.823 193.317 233.004 191.112L207.718 176.517V215.629L233.004 201.034Z" fill="#F2B441"/>
<path d="M219.321 232.618C223.645 233.145 226.926 228.812 225.225 224.821L217.588 206.908C215.888 202.919 210.486 202.263 207.863 205.727L196.092 221.273C193.469 224.737 195.591 229.723 199.913 230.25L219.321 232.618Z" fill="#F2B441"/>
<path d="M189.792 251.349C193.268 253.959 198.265 251.848 198.794 247.546L201.167 228.223C201.696 223.914 197.347 220.64 193.342 222.332L175.352 229.931C171.347 231.622 170.693 237.01 174.175 239.625L189.792 251.349Z" fill="#F2B441"/>
<ellipse cx="173.837" cy="195.183" rx="41.6084" ry="41.1863" fill="#F2B441"/>
<path d="M165.813 188.961C172.214 188.961 177.404 184.318 177.404 178.59C177.404 172.863 172.214 168.22 165.813 168.22C159.411 168.22 154.222 172.863 154.222 178.59C154.222 184.318 159.411 188.961 165.813 188.961Z" fill="white"/>
<path d="M165.515 183.628C168.141 183.628 170.27 181.506 170.27 178.887C170.27 176.269 168.141 174.146 165.515 174.146C162.889 174.146 160.76 176.269 160.76 178.887C160.76 181.506 162.889 183.628 165.515 183.628Z" fill="#1D1D1B"/>
<path d="M161.949 178.888C161.949 178.888 163.551 178.674 163.745 178.294C163.745 178.294 164.238 179.536 164.326 179.632C164.326 179.632 162.859 180.778 162.542 180.655C162.225 180.532 161.949 178.888 161.949 178.888Z" fill="white"/>
<path d="M186.023 188.961C192.424 188.961 197.613 184.318 197.613 178.59C197.613 172.863 192.424 168.22 186.023 168.22C179.621 168.22 174.432 172.863 174.432 178.59C174.432 184.318 179.621 188.961 186.023 188.961Z" fill="white"/>
<path d="M185.725 183.628C188.351 183.628 190.48 181.506 190.48 178.887C190.48 176.269 188.351 174.146 185.725 174.146C183.099 174.146 180.97 176.269 180.97 178.887C180.97 181.506 183.099 183.628 185.725 183.628Z" fill="#1D1D1B"/>
<path d="M182.159 178.888C182.159 178.888 183.761 178.674 183.955 178.294C183.955 178.294 184.448 179.536 184.536 179.632C184.536 179.632 183.069 180.778 182.752 180.655C182.435 180.532 182.159 178.888 182.159 178.888Z" fill="white"/>
<path d="M164.328 196.946C180.535 198.727 184.608 197.909 191.583 194.027C198.556 190.14 201.986 192.171 201.986 192.171C201.986 192.171 205.978 192.84 191.79 208.644C180.879 220.799 175.053 218.575 166.58 213.236C160.574 209.45 156.772 200.558 157.819 197.424C158.868 194.286 159.7 196.439 164.331 196.952L164.328 196.946Z" fill="#282828"/>
<mask id="mask0_10905_64101" style="mask-type:alpha" maskUnits="userSpaceOnUse" x="157" y="191" width="46" height="27">
<path d="M164.328 196.946C180.535 198.727 184.608 197.909 191.583 194.027C198.556 190.14 201.986 192.171 201.986 192.171C201.986 192.171 205.978 192.84 191.79 208.644C180.879 220.799 175.053 218.575 166.58 213.236C160.574 209.45 156.772 200.558 157.819 197.424C158.868 194.286 159.7 196.439 164.331 196.952L164.328 196.946Z" fill="#282828"/>
</mask>
<g mask="url(#mask0_10905_64101)">
<ellipse cx="3.55694" cy="6.83446" rx="3.55694" ry="6.83446" transform="matrix(0.345984 0.93824 0.970543 -0.240929 172.054 213.258)" fill="#EB2828"/>
<path d="M159.572 194.871C159.572 194.871 165.017 205.404 168.706 205.553C172.489 205.705 170.769 197.241 170.769 197.241L159.572 194.871Z" fill="white"/>
<path d="M166.938 190.131C166.938 190.131 172.384 200.664 176.073 200.812C179.856 200.965 184.029 194.871 184.029 194.871L166.938 190.131Z" fill="white"/>
<path d="M176.957 187.776C176.957 187.776 182.402 198.309 186.091 198.458C189.874 198.61 194.047 192.517 194.047 192.517L176.957 187.776Z" fill="white"/>
<path d="M159.572 194.871C159.572 194.871 165.017 205.404 168.706 205.553C172.489 205.705 170.769 197.241 170.769 197.241L159.572 194.871Z" stroke="white" stroke-width="1.12902"/>
<path d="M166.938 190.131C166.938 190.131 172.384 200.664 176.073 200.812C179.856 200.965 184.029 194.871 184.029 194.871L166.938 190.131Z" stroke="white" stroke-width="1.12902"/>
<path d="M176.957 187.776C176.957 187.776 182.402 198.309 186.091 198.458C189.874 198.61 194.047 192.517 194.047 192.517L176.957 187.776Z" stroke="white" stroke-width="1.12902"/>
</g>
<defs>
<clipPath id="clip0_10905_64101">
<rect width="47.5002" height="47.5002" fill="white" transform="translate(344 119.156) rotate(98.2674)"/>
</clipPath>
<clipPath id="clip1_10905_64101">
<rect width="47.5002" height="47.5002" fill="white" transform="translate(50.5044 256.54) rotate(-137.04)"/>
</clipPath>
</defs>
</svg>
